<svg xmlns="http://www.w3.org/2000/svg" xmlns:xlink="http://www.w3.org/1999/xlink" width="68" height="68" viewBox="0 0 68 68">
  <defs>
    <clipPath id="clip-path">
      <rect id="Rectangle_2813" data-name="Rectangle 2813" width="54" height="54" fill="none"/>
    </clipPath>
  </defs>
  <g id="healinghands" transform="translate(-2319 853)">
    <rect id="Rectangle_3008" data-name="Rectangle 3008" width="68" height="68" rx="3" transform="translate(2319 -853)" fill="#eceef3" opacity="0"/>
    <g id="Group_11205" data-name="Group 11205" transform="translate(2326 -846)" clip-path="url(#clip-path)">
      <path id="Path_5851" data-name="Path 5851" d="M11.519,276.881a15.2,15.2,0,0,1-1.243-.979q-4.757-4.59-9.49-9.2c-1.047-1.016-1.047-1.829,0-2.843l4.683-4.549a1.866,1.866,0,0,1,2.75-.353c1.463-1.373,2.95-2.734,4.4-4.134a12.09,12.09,0,0,1,8.889-3.492c4.379.043,8.759,0,13.138.014a3.338,3.338,0,0,1,3.41,2.546,3.261,3.261,0,0,1-3,4.013c-1.806.085-3.618.032-5.427.044a2.866,2.866,0,0,0-.593.04.768.768,0,0,0,.021,1.507,2.828,2.828,0,0,0,.54.033c2.316,0,4.633-.007,6.949.009a1.391,1.391,0,0,0,1.01-.4q4.881-4.387,9.78-8.755a4.435,4.435,0,0,1,5.877-.1,1.821,1.821,0,0,1,.211,2.83q-5.906,6.575-11.817,13.147a4.68,4.68,0,0,1-3.617,1.633c-3.185.009-6.37,0-9.555,0a1.681,1.681,0,0,1-.429-.046.771.771,0,0,1,.128-1.526c.162-.014.326-.007.488-.007,3.04,0,6.08-.012,9.121.006a3.439,3.439,0,0,0,2.751-1.219q5.743-6.433,11.527-12.833c.449-.5.438-.592-.112-.977a2.8,2.8,0,0,0-3.527.3q-3.558,3.174-7.109,6.357c-.932.834-1.87,1.66-2.792,2.5a2.362,2.362,0,0,1-1.662.655c-2.515,0-5.031.016-7.546-.009a2.37,2.37,0,1,1,.048-4.733c1.773-.018,3.547.009,5.32-.011a1.717,1.717,0,1,0,.287-3.421c-.18-.015-.362-.012-.543-.012-4.343,0-8.686.02-13.029-.008a10.3,10.3,0,0,0-7.482,2.93c-1.38,1.32-2.781,2.617-4.175,3.923-.115.108-.246.2-.335.271l8.251,8.019a6.11,6.11,0,0,1,3.045-1.513c1.392-.165,2.806-.169,4.212-.206a.663.663,0,0,1,.672.643.7.7,0,0,1-.5.834,2.6,2.6,0,0,1-.693.082c-1.064.047-2.136.021-3.19.146a4.643,4.643,0,0,0-2.454,1.211,1.836,1.836,0,0,1-.6,2.348c-1.509,1.417-2.968,2.884-4.467,4.311a14.933,14.933,0,0,1-1.253.97Zm-9.78-11.638,10.181,9.909,5.2-5.039L6.927,260.2l-5.189,5.046" transform="translate(0 -222.881)"/>
      <path id="Path_5852" data-name="Path 5852" d="M174.682,13.5c-.512-.569-.993-1.067-1.429-1.6a.794.794,0,0,1,.055-1.213.871.871,0,0,1,1.255.29,6.244,6.244,0,0,0,9.075,1.008c.23-.2.49-.358.826-.6l-10.47-6.244a4.91,4.91,0,0,0-.55,2.5c0,.281.043.561.048.842a.8.8,0,0,1-1.6.1,11.988,11.988,0,0,1,.13-2.721,7.788,7.788,0,0,1,15.223.612,7.256,7.256,0,0,1-2.528,6.692c-.079.071-.159.142-.236.215-.01.009-.009.03-.03.116.854,0,1.694-.028,2.53.007a16.727,16.727,0,0,1,3.012.235,6.252,6.252,0,0,1,4.789,6.564,6.384,6.384,0,0,1-5.558,5.755,8.185,8.185,0,0,1-1.026.082q-8.63.007-17.261,0a6.471,6.471,0,0,1-6.525-5.313,6.384,6.384,0,0,1,6.166-7.323c1.354-.028,2.71,0,4.106,0m4.028,11.028V15.093c-2.808,0-5.576-.064-8.339.025a4.414,4.414,0,0,0-3.652,2.169,4.4,4.4,0,0,0-.2,4.713,4.638,4.638,0,0,0,4.2,2.543c2.567.056,5.137.016,7.706.016a2.606,2.606,0,0,0,.28-.031m1.71,0a2.893,2.893,0,0,0,.3.032c2.55,0,5.1.032,7.649-.023a5.463,5.463,0,0,0,2.031-.472,4.623,4.623,0,0,0,2.682-5.189,4.809,4.809,0,0,0-4.707-3.789c-2.531-.022-5.063-.007-7.6-.005a3,3,0,0,0-.357.041ZM174.848,3.793l10.285,6.136a5.787,5.787,0,0,0-2.333-7.44,6.18,6.18,0,0,0-7.952,1.3" transform="translate(-146.437)" fill="#ec8046"/>
    </g>
  </g>
</svg>
