<svg xmlns="http://www.w3.org/2000/svg" xmlns:xlink="http://www.w3.org/1999/xlink" width="68" height="68" viewBox="0 0 68 68">
  <defs>
    <clipPath id="clip-path">
      <rect id="Rectangle_2815" data-name="Rectangle 2815" width="54.003" height="54" fill="none"/>
    </clipPath>
  </defs>
  <g id="adavanced" transform="translate(-2414 853)">
    <rect id="Rectangle_3028" data-name="Rectangle 3028" width="68" height="68" rx="3" transform="translate(2414 -853)" fill="#eceef3" opacity="0"/>
    <g id="Group_11209" data-name="Group 11209" transform="translate(2421 -846)" clip-path="url(#clip-path)">
      <path id="Path_5860" data-name="Path 5860" d="M0,10.877A15.873,15.873,0,0,1,.975,8.351,6.41,6.41,0,0,1,6.389,5.115c.733-.047,1.043.264,1.045,1.042q.008,3.769,0,7.539v.653c.228.011.4.026.57.026q5.115,0,10.229.008a1.144,1.144,0,0,0,.824-.343c.816-.716,1.658-1.408,2.527-2.059a1.741,1.741,0,0,0,.667-.825A32.634,32.634,0,0,1,28.114,1.112a2.5,2.5,0,0,1,4.17.015c1,1.243,1.915,2.555,2.843,3.855a.817.817,0,0,1-.11,1.25c-.418.28-.853.113-1.23-.41-.9-1.252-1.807-2.506-2.753-3.726-.538-.694-1.1-.675-1.659-.013a31.634,31.634,0,0,0-7.109,15c-.246,1.326-.352,2.679-.5,4.022-.09.821.28,1.223,1.114,1.224q7.329.008,14.658,0c.835,0,1.145-.381,1.1-1.238a32.113,32.113,0,0,0-3.087-12.06c-.03-.063-.063-.126-.087-.192a.8.8,0,0,1,.381-1.071.76.76,0,0,1,1.051.416c.446.991.839,2.007,1.291,3a2.251,2.251,0,0,0,.59.746q1.283,1.087,2.614,2.118a1.393,1.393,0,0,0,.765.319c3.533.021,7.066.014,10.6.014,1.028,0,1.242.212,1.242,1.227V37.327a2.51,2.51,0,0,1-.017.526.785.785,0,0,1-1.555-.034,3.342,3.342,0,0,1-.011-.526V16H42.989a3.628,3.628,0,0,0,.158.334,15.837,15.837,0,0,1,2.036,5.274,1.788,1.788,0,0,1-1.872,2.3c-2.179.01-4.359,0-6.538,0h-.65c-.117,1.017.269,2.124-.811,2.785a5.322,5.322,0,0,1,.754,4.226c-.008.034-.013.069-.022.1-.371,1.363-.732,1.535-2.034.936-.061.115-.127.23-.183.35a8.065,8.065,0,0,1-3.052,3.338A.979.979,0,0,1,29.6,35.62a7.967,7.967,0,0,1-3.176-3.674c-.173.08-.327.149-.48.222-.654.314-1.063.181-1.347-.5a5.135,5.135,0,0,1,.4-4.817,7.559,7.559,0,0,1-.645-1.412,7.379,7.379,0,0,1-.023-1.539H17.273a1.83,1.83,0,0,1-2.012-2.448A16.211,16.211,0,0,1,17.461,16H7.474c-.012.173-.036.357-.036.541v4.534a4.352,4.352,0,0,1-.012.474.782.782,0,0,1-1.564-.018A5.166,5.166,0,0,1,5.851,21q0-6.774,0-13.548V6.8A5.018,5.018,0,0,0,1.6,11.49c-.009.193-.008.386-.008.58V43.613a6.9,6.9,0,0,1,4.263-2.287V25.24a4.126,4.126,0,0,1,.025-.631.718.718,0,0,1,.8-.672.713.713,0,0,1,.741.677,4.035,4.035,0,0,1,.023.578q0,8.2,0,16.4c0,1.075-.112,1.2-1.182,1.3a5.047,5.047,0,0,0-4.634,4.439,4.728,4.728,0,0,0,3.843,4.989,6.467,6.467,0,0,0,1.152.1q22.647.007,45.294,0h.5V41.3a2.865,2.865,0,0,1,.016-.526.785.785,0,0,1,1.548-.012,2.256,2.256,0,0,1,.018.473c0,3.883-.006,7.767.009,11.65A1.156,1.156,0,0,1,53.468,54H5.589a2.259,2.259,0,0,0-.288-.1A6.332,6.332,0,0,1,.25,49.367c-.1-.312-.167-.637-.25-.955V10.877M34.549,30.422a3.757,3.757,0,0,0-.913-3.292.734.734,0,0,0-.5-.192q-2.925-.02-5.852,0a.676.676,0,0,0-.436.109,3.58,3.58,0,0,0-.937,3.364c.188-.094.372-.191.559-.278.613-.287,1.11-.084,1.248.564a5.648,5.648,0,0,0,2.122,3.174.474.474,0,0,0,.719.012,5.712,5.712,0,0,0,2.135-3.168.79.79,0,0,1,1.232-.589c.189.086.373.18.624.3m5.643-8.089h3.12c.377,0,.358-.218.3-.5a13.225,13.225,0,0,0-2.4-5.491c-.585-.768-1.282-1.452-1.928-2.174l-.125.1a29.881,29.881,0,0,1,1.026,8.067m-19.978,0a33.115,33.115,0,0,1,.955-8.04,12.819,12.819,0,0,0-4.394,7.643c-.054.269.047.4.325.4h3.114m14.271,1.639h-8.55V25.31h8.573v-.974c0-.118-.014-.236-.022-.365"/>
      <path id="Path_5861" data-name="Path 5861" d="M101.967,242.87a2.8,2.8,0,0,1,3.1-.223l3.758-3.46c.6-.548,1.175-1.112,1.787-1.639a.594.594,0,0,0,.189-.763,2.681,2.681,0,0,1,1.723-3.421,2.712,2.712,0,1,1,1.727,5.141,2.454,2.454,0,0,1-1.851-.042c-.288-.128-.444-.018-.635.159q-2.648,2.455-5.312,4.893a.588.588,0,0,0-.187.718,2.7,2.7,0,0,1-5.2,1.467,2.13,2.13,0,0,1-.067-.985.733.733,0,0,0-.413-.88q-2.1-1.409-4.17-2.863a.538.538,0,0,0-.7-.032,2.516,2.516,0,0,1-2.375.162.507.507,0,0,0-.646.095q-2.793,2.609-5.616,5.186a.565.565,0,0,0-.2.673,2.674,2.674,0,0,1-1.3,3.144,2.713,2.713,0,0,1-3.537-3.907,2.672,2.672,0,0,1,3.256-.984.621.621,0,0,0,.78-.134q2.734-2.556,5.5-5.075a.578.578,0,0,0,.2-.713,2.655,2.655,0,0,1,.917-2.924,2.74,2.74,0,0,1,3.068-.185,2.77,2.77,0,0,1,1.289,2.8.629.629,0,0,0,.161.514c1.564,1.1,3.145,2.18,4.75,3.283m2.827,2.106a1.119,1.119,0,1,0-1.113,1.155,1.132,1.132,0,0,0,1.113-1.155m-19.382,2.813a1.116,1.116,0,0,0-1.154-1.1,1.131,1.131,0,0,0-1.092,1.119,1.112,1.112,0,0,0,1.134,1.123A1.1,1.1,0,0,0,85.41,247.8m8.934-10.3a1.1,1.1,0,0,0-1.1,1.149,1.119,1.119,0,0,0,1.118,1.091A1.137,1.137,0,0,0,95.5,238.6a1.122,1.122,0,0,0-1.151-1.11m17.9-1.538a1.121,1.121,0,1,0,1.126-1.136,1.133,1.133,0,0,0-1.126,1.136" transform="translate(-70.089 -200.38)" fill="#ec8046"/>
      <path id="Path_5862" data-name="Path 5862" d="M186.631,74.315a4.544,4.544,0,1,1,4.555-4.555,4.544,4.544,0,0,1-4.555,4.555m0-1.586a2.955,2.955,0,1,0-2.113-.865,2.959,2.959,0,0,0,2.113.865" transform="translate(-156.426 -56.041)" fill="#ec8046"/>
    </g>
  </g>
</svg>
