<svg xmlns="http://www.w3.org/2000/svg" xmlns:xlink="http://www.w3.org/1999/xlink" width="72" height="55.222" viewBox="0 0 72 55.222">
  <defs>
    <clipPath id="clip-path">
      <path id="Path_6044" data-name="Path 6044" d="M66.4,137.65c-6.247,5.732-20.923-8.91-24.968,14.892-1.206,7.1,2.239,15.048,14.373,18,7.516,1.831,27.364,15.559,46.232,3.038C126.487,157.357,108.706,98.827,66.4,137.65Z" transform="translate(-41.207 -124.589)" fill="none"/>
    </clipPath>
    <clipPath id="clip-path-2">
      <path id="Path_6067" data-name="Path 6067" d="M67.167,137.905C60.92,143.637,46.244,129,42.2,152.8c-1.206,7.1,2.239,15.048,14.373,18,7.516,1.831,27.364,15.559,46.232,3.038C127.253,157.613,109.472,99.082,67.167,137.905Z" transform="translate(-41.973 -124.844)" fill="none"/>
    </clipPath>
    <clipPath id="clip-path-3">
      <path id="Path_6068" data-name="Path 6068" d="M67.4,137.06c-6.247,5.732-20.923-8.91-24.968,14.892-1.206,7.1,2.239,15.048,14.373,18,7.516,1.831,27.364,15.559,46.232,3.038C127.487,156.768,109.706,98.237,67.4,137.06Z" transform="translate(-42.207 -123.999)" fill="none"/>
    </clipPath>
  </defs>
  <g id="pharmacies" transform="translate(-41.207 -123.999)">
    <path id="Path_5946" data-name="Path 5946" d="M67.167,137.905C60.92,143.637,46.244,129,42.2,152.8c-1.206,7.1,2.239,15.048,14.373,18,7.516,1.831,27.364,15.559,46.232,3.038C127.253,157.613,109.472,99.082,67.167,137.905Z" transform="translate(-0.706 -0.779)" fill="#d3e5eb"/>
    <g id="Group_6328" data-name="Group 6328" transform="translate(41.207 124.046)">
      <g id="Group_6327" data-name="Group 6327" transform="translate(0 0)" clip-path="url(#clip-path)">
        <g id="Group_6326" data-name="Group 6326" transform="translate(19.442 5.33)">
          <path id="Path_5985" data-name="Path 5985" d="M486.54,732.526c1.671-6.083,2.895-7.423,1.691-10.332-.736-1.779-8.763-1.47-8.763-1.47-.411,2.621-1.066,9.638-1.4,11.8Z" transform="translate(-463.208 -679.232)" fill="#224855"/>
          <g id="Group_6306" data-name="Group 6306" transform="translate(0.031 13.397)">
            <path id="Path_5986" data-name="Path 5986" d="M349,399.732s-5.035-1.249-9.091.876c-3.351,1.756-6.076,11.265-6.076,11.265s-6.1-8.767-6.608-8.71c-1.215.136-4.185.4-3.318,1.977s6.48,13.6,10.894,13.454C340.167,418.419,349,399.732,349,399.732Z" transform="translate(-321.041 -396.521)" fill="#007291"/>
            <path id="Path_5987" data-name="Path 5987" d="M295.555,369.823a12.3,12.3,0,0,0-.434-2.7c-.3-.662-1.49-1.747-1.738-2.246s-.369-1.719-.675-1.758-.577.385-.636.7a15.19,15.19,0,0,0-.128,1.967s-2.491-.238-2.663.235a4.923,4.923,0,0,0,2.905,5.6Z" transform="translate(-289.24 -363.114)" fill="#f6ad83"/>
          </g>
          <g id="Group_6312" data-name="Group 6312" transform="translate(0.248 12.059)">
            <path id="Path_5988" data-name="Path 5988" d="M304.9,359.905h2.182a.277.277,0,0,0,.274-.28v-1.058a.277.277,0,0,0-.274-.28H304.9a.277.277,0,0,0-.274.28v1.058A.277.277,0,0,0,304.9,359.905Z" transform="translate(-303.633 -357.329)" fill="#6e92f9"/>
            <g id="Group_6308" data-name="Group 6308" transform="translate(0.549)">
              <path id="Path_5989" data-name="Path 5989" d="M304.9,358.287h2.182a.29.29,0,0,1,.274.3v.573h-2.731v-.573A.29.29,0,0,1,304.9,358.287Z" transform="translate(-304.181 -357.329)" fill="#007291"/>
              <g id="Group_6307" data-name="Group 6307">
                <path id="Path_5990" data-name="Path 5990" d="M299.249,347.688h3.22c.145,0,.262-.179.262-.4v-.809c0-.22-.117-.4-.262-.4h-3.22c-.145,0-.262.179-.262.4v.809C298.987,347.509,299.1,347.688,299.249,347.688Z" transform="translate(-298.987 -346.08)" fill="#007291"/>
              </g>
            </g>
            <g id="Group_6311" data-name="Group 6311" transform="translate(0 1.978)">
              <path id="Path_5991" data-name="Path 5991" d="M293.24,377.053h2.234a1.252,1.252,0,0,0,1.24-1.265v-3.247a1.253,1.253,0,0,0-1.24-1.265H293.24a1.253,1.253,0,0,0-1.24,1.265v3.247A1.252,1.252,0,0,0,293.24,377.053Z" transform="translate(-292 -371.276)" fill="#007291"/>
              <path id="Path_5992" data-name="Path 5992" d="M292,393.96v2.2a.409.409,0,0,0,.138.024h4.375a.407.407,0,0,0,.2-.053v-2.148a.407.407,0,0,0-.2-.053h-4.375A.406.406,0,0,0,292,393.96Z" transform="translate(-292 -392.157)" fill="#ebac0f"/>
              <g id="Group_6310" data-name="Group 6310" transform="translate(1.424 2.157)">
                <g id="Group_6309" data-name="Group 6309">
                  <path id="Path_5993" data-name="Path 5993" d="M312.235,399.061H310.3a.158.158,0,0,1-.158-.158h0a.158.158,0,0,1,.158-.158h1.935a.158.158,0,0,1,.158.158h0A.158.158,0,0,1,312.235,399.061Z" transform="translate(-310.141 -398.744)" fill="#007291"/>
                </g>
              </g>
            </g>
          </g>
          <g id="Group_6313" data-name="Group 6313" transform="translate(0 15.937)">
            <path id="Path_5994" data-name="Path 5994" d="M296.5,397.465l2.071.035a.317.317,0,0,1,.288.2c.08.193-.107.417-.107.417a.437.437,0,0,1,.417.187h0a.437.437,0,0,1-.063.566.3.3,0,0,1,.249.525l-2.172,1.579c-.577.541-1.047.224-1.113.038C296.066,401.007,296.278,397.461,296.5,397.465Z" transform="translate(-295.499 -397.308)" fill="#f4a076"/>
            <path id="Path_5995" data-name="Path 5995" d="M296.939,439.936a9.053,9.053,0,0,1-2.293-1.966,4.263,4.263,0,0,1-.249-.71,2.081,2.081,0,0,0,1.214,1.243,3.312,3.312,0,0,1,1.925,1.011.211.211,0,0,1,.017.1Z" transform="translate(-293.96 -433.978)" fill="#f4a076"/>
            <path id="Path_5996" data-name="Path 5996" d="M288.866,395.768c.107-.51,2.37-.208,2.37-.208.468.1.581.178.63.3a.317.317,0,0,1-.252.436l.145-.019a.437.437,0,0,1,.417.187h0a.437.437,0,0,1-.063.566.295.295,0,0,1,.371.282.288.288,0,0,1-.133.18,5.118,5.118,0,0,0-1.1.53,7.282,7.282,0,0,0-.705.9c-.249.265-.857.769-1.05.473A8.376,8.376,0,0,1,288.866,395.768Z" transform="translate(-288.842 -395.471)" fill="#f6ad83"/>
            <path id="Path_5997" data-name="Path 5997" d="M308.08,408.116s.069.331-.169.439a4.2,4.2,0,0,1-1.1.177,1.831,1.831,0,0,0-.8.38c.082.054.577-.22.819-.256a8.081,8.081,0,0,0,1.1-.179A.371.371,0,0,0,308.08,408.116Z" transform="translate(-304.654 -407.123)" fill="#f4a076"/>
            <path id="Path_5998" data-name="Path 5998" d="M305.33,404.014a1.629,1.629,0,0,1-.449.045,5.238,5.238,0,0,0-.7.039c-.375.053-.793.253-.756.3s.408-.117.8-.155a7.521,7.521,0,0,0,.935-.1C305.487,404.04,305.33,404.014,305.33,404.014Z" transform="translate(-302.28 -403.343)" fill="#f4a076"/>
          </g>
          <path id="Path_5999" data-name="Path 5999" d="M512.669,459.7s-4.281-.952-6.427-1.287-5.678.6-6.731,1.6-2.984,6.406-3.525,9.109,1,7.724.772,9.423-.888,5.575-.888,5.575a13.205,13.205,0,0,0,6.719,1.948c3.36-.186,11.365-2.56,11.365-2.56a56.677,56.677,0,0,1-1.98-7.049C510.738,468.811,512.669,459.7,512.669,459.7Z" transform="translate(-479.616 -437.468)" fill="#007291"/>
          <g id="Group_6315" data-name="Group 6315" transform="translate(20.109 17.335)">
            <path id="Path_6000" data-name="Path 6000" d="M553.5,716.424c-.012,0-.235-.172-.241-.161a4.7,4.7,0,0,1-2.134,1.561,7.714,7.714,0,0,1-1.96-.087,1.367,1.367,0,0,0-.819.132,13.17,13.17,0,0,0-3.253,2.073c-.534.769.7.9,1.654.742a31.738,31.738,0,0,1,3.539-.164c1.268-.045,2.958.142,4.257-1.593C555.783,717.276,553.765,716.516,553.5,716.424Z" transform="translate(-544.967 -692.474)" fill="#f6ad83"/>
            <g id="Group_6314" data-name="Group 6314" transform="translate(0.09 25.389)">
              <path id="Path_6001" data-name="Path 6001" d="M559.675,737.709a1.856,1.856,0,0,0,.314-1.064,13.218,13.218,0,0,1-1.807,1.322c-1.288.8-1.77.755-3.653.747-1.781-.008-2.218.635-4,.74a3.443,3.443,0,0,0,1.346.011,31.709,31.709,0,0,1,3.539-.164C556.685,739.257,558.375,739.444,559.675,737.709Z" transform="translate(-550.185 -736.645)" fill="#f4a076"/>
              <path id="Path_6002" data-name="Path 6002" d="M546.391,770.307c-.068-.04-.168-.1-.281-.16A.677.677,0,0,0,546.391,770.307Z" transform="translate(-546.11 -767.517)" fill="#f4a076"/>
            </g>
            <path id="Path_6003" data-name="Path 6003" d="M645.641,430.351c-2.781-3.193-7.472-15.084-3.174-16.839,3.193-1.3,4.6,2.786,6.643,8.749.776,2.262,2.533,7.362,2.017,8.4-3.28,6.576-11.59,9.737-11.59,9.737l-1.706-2.345C639.711,434.91,645.755,430.482,645.641,430.351Z" transform="translate(-630.539 -413.269)" fill="#e1efff"/>
            <path id="Path_6004" data-name="Path 6004" d="M657.875,413.431c.928.586,2.252,2.122,3.909,6.17,3.062,7.479,3.237,9.229,2.974,10.453-.256,1.2-4.068,6.386-10.473,9.78l.414.569s8.31-3.161,11.59-9.737c.516-1.034-1.241-6.134-2.017-8.4C662.279,416.463,660.895,412.434,657.875,413.431Z" transform="translate(-645.701 -413.279)" fill="#b1ccfc"/>
          </g>
          <g id="Group_6317" data-name="Group 6317" transform="translate(10.907 16.194)">
            <g id="Group_6316" data-name="Group 6316" transform="translate(11.704 0.049)">
              <path id="Path_6005" data-name="Path 6005" d="M589.676,425.792c-.743-3.159-3.089-5.294-3.424-15.54-.1-2.991,1.751-9.645,1.751-9.645s-.4-.151-3.2-.781c-.764-.172-1.255-.3-2.3-.46a6.87,6.87,0,0,1-.464,1.859c-.885,1.84-3.9,8.69-4.174,11.008s-1.264,5.941-.966,10.736c.225,3.621.852,11.215,1.146,14.718h.044l12.364-.2S590.419,428.951,589.676,425.792Z" transform="translate(-576.839 -399.367)" fill="#d3e5eb"/>
              <path id="Path_6006" data-name="Path 6006" d="M675.014,431.085l-.034-.093q-.051-.141-.1-.287c-.2-.584-.407-1.232-.6-1.968q-.08-.307-.157-.634l-.031-.132q-.122-.532-.235-1.123-.028-.148-.055-.3a41.113,41.113,0,0,1-.508-4.1q-.016-.206-.031-.418-.022-.318-.041-.648-.006-.11-.012-.221-.012-.223-.023-.451-.021-.457-.037-.937c-.1-2.991,1.751-9.645,1.751-9.645s-.242-.092-1.67-.429c-1.176.439-2.09,1.938-2.089,4.231a18.853,18.853,0,0,0,1.648,7.573,31.369,31.369,0,0,0,.82,7.907c.927,2.925,2.349,7.921,2.258,11.782-.059,2.5-.211,4.648-.31,5.848l.115,0,1.675-.027s-.006-1.753-.081-3.965l0-.115q0-.115-.008-.232c-.01-.272-.021-.55-.033-.832q-.005-.12-.011-.242-.008-.182-.017-.365-.012-.244-.025-.49,0-.061-.007-.123a35.9,35.9,0,0,0-.585-5.335A40.529,40.529,0,0,0,675.014,431.085Z" transform="translate(-663.737 -408.89)" fill="#224855"/>
            </g>
            <rect id="Rectangle_3233" data-name="Rectangle 3233" width="5.334" height="1.394" rx="0.697" transform="translate(13.797 11.336) rotate(-2.003)" fill="#007291"/>
            <path id="Path_6007" data-name="Path 6007" d="M433.974,429.471c.111-2.119,3.109-20.924,3.122-22.914.044-6.92,1.26-6.015,1.928-7.813-.389.13-.767.266-1.119.4-1.657.626-2.64,3.754-3.5,5.3-1.63,2.922-1.711,4.642-1.246,7.929.429,3.037-5.389,24.383-5.389,24.383l5.924.16C433.782,434.263,433.908,430.732,433.974,429.471Z" transform="translate(-427.767 -398.744)" fill="#d3e5eb"/>
          </g>
          <g id="Group_6318" data-name="Group 6318" transform="translate(17.813 15.051)">
            <path id="Path_6008" data-name="Path 6008" d="M604.791,397.067s.561.051.933,1.587a13.885,13.885,0,0,1,.4,2.6l-2.9.322,2.057,2.106s-3.791,4.662-4.51,7.5.917-9.48.917-9.48Z" transform="translate(-593.923 -396.055)" fill="#224855"/>
            <path id="Path_6009" data-name="Path 6009" d="M519.3,418.648l-2.366,1.984,1.375.9-1.679,1.078a14.012,14.012,0,0,1,.49,2.918c.124,1.753.121,6.462.121,6.462Z" transform="translate(-516.555 -415.942)" fill="#224855"/>
            <path id="Path_6010" data-name="Path 6010" d="M520.585,397.2a4.625,4.625,0,0,0-2.479,1.475,16.766,16.766,0,0,0-2.007,2.193l1.357.539-1.661,1.443a20.36,20.36,0,0,1,.75,3.072c.3,1.858-.82,16.775-.82,16.775s2.723-15.811,2.946-17.893.056-3.621.249-4.606a5.342,5.342,0,0,1,1.426-2.515A3.348,3.348,0,0,0,520.585,397.2Z" transform="translate(-515.724 -396.174)" fill="#fff"/>
            <path id="Path_6011" data-name="Path 6011" d="M583.592,389.111s-.3-3.323-.82-3.992a6.477,6.477,0,0,0-1.214-.943c0,.055,0,.109.01.163.013.144.1.733.086.849-.057.669-.592,1.2-1.285,2.029a13,13,0,0,0-1.286,1.788,21.87,21.87,0,0,0-2.425,7.768c-.557,4.051-.052,12.664-.015,14.485,0,0,.769-9.8,2.542-14.188a26.318,26.318,0,0,1,3.577-5.5l-1.592-2.156Z" transform="translate(-571.633 -384.177)" fill="#fff"/>
          </g>
          <g id="Group_6325" data-name="Group 6325" transform="translate(17.203)">
            <path id="Path_6012" data-name="Path 6012" d="M596.718,253.221a3.641,3.641,0,0,0,4.24-.343c2.081-1.746,3.845-4.389,2.617-7.848s-7.3-3.049-7.346-.424S596.718,253.221,596.718,253.221Z" transform="translate(-589.295 -238.606)" fill="#002756"/>
            <g id="Group_6324" data-name="Group 6324">
              <path id="Path_6013" data-name="Path 6013" d="M520.341,299.59s-1.446,1.794-.812,2.859.473,1.417,1.586,2.522,4.42.139,4.42.139l-.648-4.515Z" transform="translate(-518.472 -291.181)"/>
              <g id="Group_6323" data-name="Group 6323">
                <path id="Path_6014" data-name="Path 6014" d="M674.539,206.805a.738.738,0,0,1-.209-.05l.05-.112-.025.056.025-.056c.031.013.765.316,1.683-.84a2.2,2.2,0,0,0,.287-1.9,5.384,5.384,0,0,0-3.256-3.377l.05-.112a5.5,5.5,0,0,1,3.325,3.46,2.323,2.323,0,0,1-.31,2.008C675.46,206.76,674.847,206.838,674.539,206.805Z" transform="translate(-660.128 -199.789)" fill="#064172"/>
                <path id="Path_6015" data-name="Path 6015" d="M574.4,364.442a.833.833,0,0,0,.156-.856,3.369,3.369,0,0,1-.2-.92,5.136,5.136,0,0,1,.363-2.01l-5.349.92a2.915,2.915,0,0,1-.01,1.717c-.208.772-.789,1.234-.789,1.769,0,1.771,1.881,1.43,2.5,1.389A6.137,6.137,0,0,0,574.4,364.442Z" transform="translate(-563.806 -347.452)" fill="#f6ad83"/>
                <path id="Path_6016" data-name="Path 6016" d="M574.972,361.576A3.077,3.077,0,0,1,574.65,364a3.21,3.21,0,0,0,1.566.661,4.381,4.381,0,0,0,3.75-1.915c0-.027-.006-.053-.009-.081a5.133,5.133,0,0,1,.363-2.01Z" transform="translate(-569.413 -347.452)" fill="#f4a076"/>
                <path id="Path_6017" data-name="Path 6017" d="M621.875,196.459s-3.006-1.824-1.766-3.045a3.481,3.481,0,0,1,4.91.161c1.195,1.484,2.716,3.373,1.705,4.742S621.771,198.563,621.875,196.459Z" transform="translate(-611.027 -192.48)" fill="#002756"/>
                <path id="Path_6018" data-name="Path 6018" d="M543.078,249.128a1.281,1.281,0,0,0-.5.043c-.3-2.576-1.985-4.623-4.22-4.864-2.69-.291-5.159,2.145-5.515,5.441s1.536,6.2,4.227,6.493c2.468.266,4.748-1.762,5.383-4.643a1.286,1.286,0,1,0,.62-2.47Z" transform="translate(-530.853 -240.216)" fill="#f6ad83"/>
                <g id="Group_6319" data-name="Group 6319" transform="translate(8.987 9.4)">
                  <path id="Path_6019" data-name="Path 6019" d="M622.42,313.434a17.823,17.823,0,0,1,1.722-1.073,1.382,1.382,0,0,0-.21-.156,17.583,17.583,0,0,0-1.514.942,1.5,1.5,0,0,1,.008.225C622.425,313.393,622.422,313.413,622.42,313.434Z" transform="translate(-622.418 -312.205)"/>
                </g>
                <g id="Group_6320" data-name="Group 6320" transform="translate(2.525 8.01)">
                  <path id="Path_6020" data-name="Path 6020" d="M551.343,317.005h0a.429.429,0,0,1-.393-.461l.048-.611a.429.429,0,0,1,.461-.394h0a.429.429,0,0,1,.394.461l-.048.611A.429.429,0,0,1,551.343,317.005Z" transform="translate(-550.097 -313.887)"/>
                  <path id="Path_6021" data-name="Path 6021" d="M543.034,314.329a1.4,1.4,0,0,1-.655-.222.184.184,0,0,1,.2-.308,1.032,1.032,0,0,0,.786.143.184.184,0,0,1,.08.359A1.391,1.391,0,0,1,543.034,314.329Z" transform="translate(-542.125 -312.256)"/>
                  <path id="Path_6022" data-name="Path 6022" d="M593.334,320.32h0a.429.429,0,0,0,.461-.394l.048-.611a.429.429,0,0,0-.394-.461h0a.429.429,0,0,0-.461.394l-.048.611A.429.429,0,0,0,593.334,320.32Z" transform="translate(-588.791 -316.941)"/>
                  <path id="Path_6023" data-name="Path 6023" d="M598.2,319.556a1.391,1.391,0,0,1-.4-.093.184.184,0,0,1,.135-.342,1.033,1.033,0,0,0,.8-.018.184.184,0,1,1,.15.335A1.4,1.4,0,0,1,598.2,319.556Z" transform="translate(-593.161 -317.157)"/>
                  <path id="Path_6024" data-name="Path 6024" d="M540.281,295.225a.184.184,0,0,1-.089-.335,2.312,2.312,0,0,1,1.789-.346.184.184,0,1,1-.065.362,1.937,1.937,0,0,0-1.517.289A.182.182,0,0,1,540.281,295.225Z" transform="translate(-540.111 -294.496)"/>
                  <path id="Path_6025" data-name="Path 6025" d="M595.35,298.739a.184.184,0,0,0,.14-.317,2.312,2.312,0,0,0-1.712-.623.184.184,0,0,0,.008.367,1.938,1.938,0,0,1,1.453.524A.182.182,0,0,0,595.35,298.739Z" transform="translate(-589.399 -297.539)"/>
                </g>
                <path id="Path_6026" data-name="Path 6026" d="M514.069,228.035a3.558,3.558,0,0,1-1.844,3.625c-1.714,1.047-2.356,1.376-2.751,2.66-.478,1.553,1.119,3.324,1.119,3.324a5.512,5.512,0,0,1-2.6-5.578,5.964,5.964,0,0,1,2.853-4.743C512.3,226.37,513.9,225.918,514.069,228.035Z" transform="translate(-507.951 -223.852)" fill="#002756"/>
                <path id="Path_6027" data-name="Path 6027" d="M570.946,340.238l.021-.024-.033.034A.343.343,0,0,1,571,340.2l-.04.025a.356.356,0,0,1,.079-.035l-.046.014a.35.35,0,0,1,.077-.012h-.049a.329.329,0,0,1,.079.008l-.048-.012a.341.341,0,0,1,.082.032l-.042-.023a.355.355,0,0,1,.064.048l-.034-.032a.341.341,0,0,1,.05.062l-.025-.04.012.021a.2.2,0,0,0,.1.1.188.188,0,0,0,.143,0,.186.186,0,0,0,.092-.243.5.5,0,0,0-.84-.086.185.185,0,0,0,.039.257.188.188,0,0,0,.257-.039Z" transform="translate(-565.695 -328.258)"/>
                <g id="Group_6321" data-name="Group 6321" transform="translate(4.701 13.185)">
                  <path id="Path_6028" data-name="Path 6028" d="M568.172,361.066c-.054-.006-.107-.013-.161-.022l-.032-.005a.184.184,0,0,1-.15-.212.181.181,0,0,1,.212-.151l.033.006a2.338,2.338,0,0,0,1.486-.241.184.184,0,1,1,.173.324A2.709,2.709,0,0,1,568.172,361.066Z" transform="translate(-567.826 -360.419)"/>
                </g>
                <path id="Path_6029" data-name="Path 6029" d="M517.329,244.2a5.574,5.574,0,0,0-1.482,1.947,7.484,7.484,0,0,0,1.668,3.15,8.141,8.141,0,0,1,1.41-1A5.8,5.8,0,0,1,517.329,244.2Z" transform="translate(-515.227 -240.136)" fill="#064172" opacity="0.33"/>
                <path id="Path_6030" data-name="Path 6030" d="M516.595,254.583a.061.061,0,0,1-.033-.014c-.022-.019-2.166-1.893-.863-4.221a4.418,4.418,0,0,1,2.1-1.8,9.331,9.331,0,0,0,1.2-.713,4.892,4.892,0,0,0,1.623-2.394.061.061,0,0,1,.118.032,5.029,5.029,0,0,1-1.669,2.461,9.437,9.437,0,0,1-1.219.722,4.32,4.32,0,0,0-2.054,1.749c-1.254,2.24.814,4.05.835,4.068a.061.061,0,0,1-.047.107Z" transform="translate(-514.704 -241.243)" fill="#064172"/>
                <path id="Path_6031" data-name="Path 6031" d="M576.224,225.215c1.412,1.754,4.17,1.313,4.661,2.474a5.022,5.022,0,0,1,.005,3.5c-.344.775,1.229-1.2,1-4.279s2.109.424,2.109.424a5.623,5.623,0,0,0-2.844-6.76c-1.171-.683-4.792-1.257-5.651.991C575.2,222.368,574.812,223.461,576.224,225.215Z" transform="translate(-569.935 -217.807)" fill="#002756"/>
                <path id="Path_6032" data-name="Path 6032" d="M599.265,225.431c0,.168-.013.337-.031.506a5.8,5.8,0,0,1-3.965,4.862,6.053,6.053,0,0,0,2.106.911,7.441,7.441,0,0,0,3.51-5.2,7.576,7.576,0,0,0-1.246-.9A2.993,2.993,0,0,0,599.265,225.431Z" transform="translate(-588.413 -222.844)" fill="#064172"/>
                <path id="Path_6033" data-name="Path 6033" d="M540.318,341.158a.612.612,0,1,1-.562-.659A.613.613,0,0,1,540.318,341.158Z" transform="translate(-536.65 -328.876)" fill="#f28d77"/>
                <path id="Path_6034" data-name="Path 6034" d="M601.144,344.588a.612.612,0,1,1-.562-.659A.612.612,0,0,1,601.144,344.588Z" transform="translate(-592.701 -332.037)" fill="#f28d77"/>
                <path id="Path_6035" data-name="Path 6035" d="M578.289,259.414a.067.067,0,0,1-.061-.04c-.3-.683.131-1.408.592-2.176a5.119,5.119,0,0,0,.876-2.143c.171-2.22-1.373-2.6-2.866-2.961a4.331,4.331,0,0,1-2.072-.872,3.921,3.921,0,0,1-1.329-3.146.067.067,0,1,1,.132.02,3.866,3.866,0,0,0,1.292,3.031,4.249,4.249,0,0,0,2.008.836c1.475.36,3.147.768,2.968,3.1a5.212,5.212,0,0,1-.895,2.2c-.461.769-.86,1.433-.584,2.053a.067.067,0,0,1-.061.094Z" transform="translate(-568.274 -243.659)" fill="#064172"/>
                <g id="Group_6322" data-name="Group 6322" transform="translate(1.902 8.929)">
                  <path id="Path_6036" data-name="Path 6036" d="M587.206,312.448a1.3,1.3,0,1,0-.1-.527c0,.03,0,.059,0,.089a.725.725,0,0,1,.1.394A.118.118,0,0,1,587.206,312.448Z" transform="translate(-582.796 -310.308)" fill="none"/>
                  <path id="Path_6037" data-name="Path 6037" d="M535.877,308.568a1.3,1.3,0,1,0,1.128,1.87.112.112,0,0,1,0-.012.723.723,0,0,1,.123-.383,1.3,1.3,0,0,0-1.25-1.475Z" transform="translate(-534.354 -308.382)" fill="none"/>
                  <path id="Path_6038" data-name="Path 6038" d="M534.827,308.259a1.3,1.3,0,1,1,.133-.534,1.346,1.346,0,0,1-.012.14.82.82,0,0,1,.2-.2,1.484,1.484,0,1,0-.15.679.1.1,0,0,1-.066.024A.108.108,0,0,1,534.827,308.259Z" transform="translate(-532.176 -306.203)"/>
                  <path id="Path_6039" data-name="Path 6039" d="M568.709,329.265a.49.49,0,0,0-.07.223A1.474,1.474,0,0,0,568.709,329.265Z" transform="translate(-565.776 -327.454)"/>
                  <path id="Path_6040" data-name="Path 6040" d="M586.382,308.294a1.486,1.486,0,0,0-1.518,1.328.823.823,0,0,1,.178.208c0-.029,0-.059,0-.089a1.3,1.3,0,1,1,.1.527.106.106,0,0,1-.1.065.11.11,0,0,1-.1-.116.494.494,0,0,0-.067-.26,1.484,1.484,0,1,0,1.515-1.663Z" transform="translate(-580.727 -308.129)"/>
                  <path id="Path_6041" data-name="Path 6041" d="M570.74,322.669a.959.959,0,0,0-1.169-.035c0,.023,0,.046,0,.07a1.482,1.482,0,0,1-.036.283.732.732,0,0,1,1.206.017,1.483,1.483,0,0,1-.012-.221C570.731,322.744,570.735,322.707,570.74,322.669Z" transform="translate(-566.603 -321.176)"/>
                  <path id="Path_6042" data-name="Path 6042" d="M566.251,324.766a.821.821,0,0,0-.2.2,1.287,1.287,0,0,1-.121.395.108.108,0,0,0,.1.1.1.1,0,0,0,.066-.024c.016-.033.031-.067.045-.1a.491.491,0,0,1,.07-.223,1.482,1.482,0,0,0,.036-.283C566.254,324.812,566.252,324.789,566.251,324.766Z" transform="translate(-563.284 -323.309)"/>
                  <path id="Path_6043" data-name="Path 6043" d="M584.925,325.926a.107.107,0,0,0,.1-.065,1.285,1.285,0,0,1-.094-.439.826.826,0,0,0-.178-.208c0,.038-.008.076-.009.114a1.5,1.5,0,0,0,.012.221.494.494,0,0,1,.067.261A.11.11,0,0,0,584.925,325.926Z" transform="translate(-580.615 -323.721)"/>
                </g>
              </g>
            </g>
          </g>
        </g>
      </g>
    </g>
    <g id="Group_6330" data-name="Group 6330" transform="translate(50.078 156.03)">
      <path id="Path_6045" data-name="Path 6045" d="M177.423,752.972H154.569c-.314,0-.45-.3-.3-.669l.784-1.976a1.039,1.039,0,0,1,.834-.669h22.854c.314,0,.45.3.3.669l-.784,1.976A1.039,1.039,0,0,1,177.423,752.972Z" transform="translate(-154.206 -732.567)" fill="#11272d"/>
      <g id="Group_6329" data-name="Group 6329" transform="translate(1.244 0)">
        <path id="Path_6046" data-name="Path 6046" d="M191.4,545.067H173a1.52,1.52,0,0,1-1.457-1.278l-1.481-10.538a1.085,1.085,0,0,1,1.1-1.278h18.394a1.52,1.52,0,0,1,1.457,1.278l1.481,10.538A1.085,1.085,0,0,1,191.4,545.067Z" transform="translate(-170.052 -531.973)" fill="#224855"/>
        <path id="Path_6047" data-name="Path 6047" d="M181.184,541.678l10.806-9.516h-3.02l-8.108,7.227Z" transform="translate(-180.014 -532.148)" fill="#11272d"/>
        <path id="Path_6048" data-name="Path 6048" d="M204.4,531.973l-14.64,12.043a1.542,1.542,0,0,0,.624.809l15.106-12.852Z" transform="translate(-188.209 -531.973)" fill="#11272d"/>
        <path id="Path_6049" data-name="Path 6049" d="M254.1,670.729h-4.523a.406.406,0,0,1-.387-.528l2.432-7.7a.406.406,0,0,1,.387-.284h4.523a.406.406,0,0,1,.387.528l-2.432,7.7A.406.406,0,0,1,254.1,670.729Z" transform="translate(-242.959 -651.994)" fill="#224855"/>
        <path id="Path_6050" data-name="Path 6050" d="M283.691,662.22h-4.523a.406.406,0,0,0-.387.284l-.137.433h3.882a.406.406,0,0,1,.387.528l-2.295,7.265h.641a.406.406,0,0,0,.387-.284l2.432-7.7A.406.406,0,0,0,283.691,662.22Z" transform="translate(-270.118 -651.994)" fill="#11272d"/>
      </g>
    </g>
    <rect id="Rectangle_3234" data-name="Rectangle 3234" width="69.037" height="4.895" rx="2.447" transform="translate(42.709 174.326)" fill="#224855"/>
    <path id="Path_6051" data-name="Path 6051" d="M127.534,783.038H62.359a1.852,1.852,0,0,1-1.931-1.761V780.8a1.618,1.618,0,0,0-.086.521v1.373a1.852,1.852,0,0,0,1.931,1.761h65.176a1.852,1.852,0,0,0,1.931-1.761V781.8A1.919,1.919,0,0,1,127.534,783.038Z" transform="translate(-17.633 -605.23)" fill="#11272d"/>
    <g id="_" data-name="+" transform="translate(44.243 136.436)">
      <g id="Group_6331" data-name="Group 6331" transform="translate(2.335 25.515)" opacity="0.7">
        <rect id="Rectangle_3235" data-name="Rectangle 3235" width="1.011" height="3.295" rx="0.506" transform="translate(2.153 3.295) rotate(180)" fill="#f1f6f7"/>
        <rect id="Rectangle_3236" data-name="Rectangle 3236" width="1.011" height="3.295" rx="0.506" transform="translate(3.295 1.142) rotate(90)" fill="#f1f6f7"/>
      </g>
      <g id="Group_6332" data-name="Group 6332" transform="translate(23.755 0)" opacity="0.7">
        <rect id="Rectangle_3237" data-name="Rectangle 3237" width="0.812" height="2.646" rx="0.406" transform="translate(1.729 2.646) rotate(180)" fill="#f1f6f7"/>
        <rect id="Rectangle_3238" data-name="Rectangle 3238" width="0.812" height="2.646" rx="0.406" transform="translate(2.646 0.917) rotate(90)" fill="#f1f6f7"/>
      </g>
      <g id="Group_6333" data-name="Group 6333" transform="translate(30.656 3.259)" opacity="0.7">
        <rect id="Rectangle_3239" data-name="Rectangle 3239" width="0.531" height="1.729" rx="0.265" transform="translate(1.13 1.729) rotate(180)" fill="#f1f6f7"/>
        <rect id="Rectangle_3240" data-name="Rectangle 3240" width="0.531" height="1.729" rx="0.265" transform="translate(1.729 0.599) rotate(90)" fill="#f1f6f7"/>
      </g>
      <g id="Group_6334" data-name="Group 6334" transform="translate(24.246 6.828)" opacity="0.7">
        <rect id="Rectangle_3241" data-name="Rectangle 3241" width="1.097" height="3.573" rx="0.548" transform="translate(2.335 3.573) rotate(180)" fill="#f1f6f7"/>
        <rect id="Rectangle_3242" data-name="Rectangle 3242" width="1.097" height="3.573" rx="0.548" transform="translate(3.573 1.238) rotate(90)" fill="#f1f6f7"/>
      </g>
      <g id="Group_6335" data-name="Group 6335" transform="translate(0 20.841)" opacity="0.7">
        <rect id="Rectangle_3243" data-name="Rectangle 3243" width="0.717" height="2.335" rx="0.358" transform="translate(1.526 2.335) rotate(180)" fill="#f1f6f7"/>
        <rect id="Rectangle_3244" data-name="Rectangle 3244" width="0.717" height="2.335" rx="0.358" transform="translate(2.335 0.809) rotate(90)" fill="#f1f6f7"/>
      </g>
    </g>
    <g id="Group_6340" data-name="Group 6340" transform="translate(41.267 124.066)">
      <g id="Group_6339" data-name="Group 6339" transform="translate(0 0)" clip-path="url(#clip-path-2)">
        <g id="Group_6338" data-name="Group 6338" transform="translate(4.211 10.726)">
          <circle id="Ellipse_80" data-name="Ellipse 80" cx="5.246" cy="5.246" r="5.246" transform="translate(0.157 0.157)" fill="#f2f5ff" opacity="0.7"/>
          <path id="Path_6052" data-name="Path 6052" d="M101.011,272.27a5.4,5.4,0,1,1,5.4-5.4A5.409,5.409,0,0,1,101.011,272.27Zm0-10.493a5.09,5.09,0,1,0,5.09,5.09A5.1,5.1,0,0,0,101.011,261.777Z" transform="translate(-95.608 -261.464)" fill="#b1ccfc"/>
          <g id="Group_6336" data-name="Group 6336" transform="translate(4.664 2.666)">
            <path id="Path_6053" data-name="Path 6053" d="M158.094,298.727a.125.125,0,0,1-.1-.2l2.049-3.052a.125.125,0,1,1,.208.14l-2.049,3.052A.125.125,0,0,1,158.094,298.727Z" transform="translate(-157.736 -295.424)" fill="#8cb6f4"/>
            <path id="Path_6054" data-name="Path 6054" d="M158.444,327.359a.1.1,0,0,1-.071-.032l-3.339-3.72a.1.1,0,0,1,.142-.127l3.339,3.72a.1.1,0,0,1-.071.159Z" transform="translate(-155.01 -321.248)" fill="#8cb6f4"/>
          </g>
          <g id="Group_6337" data-name="Group 6337" transform="translate(0.634 0.749)">
            <path id="Path_6055" data-name="Path 6055" d="M164.521,271.669h0a.1.1,0,0,1-.1-.1V271.1a.1.1,0,0,1,.1-.1h0a.1.1,0,0,1,.1.1v.477A.1.1,0,0,1,164.521,271.669Z" transform="translate(-159.656 -271.001)" fill="#b1ccfc"/>
            <path id="Path_6056" data-name="Path 6056" d="M134.989,278.768h0a.1.1,0,0,1-.13-.035l-.238-.413a.1.1,0,0,1,.035-.13h0a.1.1,0,0,1,.13.035l.238.413A.1.1,0,0,1,134.989,278.768Z" transform="translate(-132.179 -277.613)" fill="#b1ccfc"/>
            <path id="Path_6057" data-name="Path 6057" d="M112.963,299.682h0a.1.1,0,0,1-.13.035l-.413-.238a.1.1,0,0,1-.035-.13h0a.1.1,0,0,1,.13-.035l.413.238A.1.1,0,0,1,112.963,299.682Z" transform="translate(-111.689 -297.079)" fill="#b1ccfc"/>
            <path id="Path_6058" data-name="Path 6058" d="M104.345,328.808h0a.1.1,0,0,1-.1.1h-.477a.1.1,0,0,1-.1-.1h0a.1.1,0,0,1,.1-.1h.477A.1.1,0,0,1,104.345,328.808Z" transform="translate(-103.677 -324.182)" fill="#b1ccfc"/>
            <path id="Path_6059" data-name="Path 6059" d="M111.444,355.541h0a.1.1,0,0,1-.035.13l-.413.238a.1.1,0,0,1-.13-.035h0a.1.1,0,0,1,.035-.13l.413-.238A.1.1,0,0,1,111.444,355.541Z" transform="translate(-110.29 -348.86)" fill="#b1ccfc"/>
            <path id="Path_6060" data-name="Path 6060" d="M132.359,375.518h0a.1.1,0,0,1,.035.13l-.239.413a.1.1,0,0,1-.13.035h0a.1.1,0,0,1-.035-.13l.238-.413A.1.1,0,0,1,132.359,375.518Z" transform="translate(-129.755 -367.301)" fill="#b1ccfc"/>
            <path id="Path_6061" data-name="Path 6061" d="M161.484,383.387h0a.1.1,0,0,1,.1.1v.477a.1.1,0,0,1-.1.1h0a.1.1,0,0,1-.1-.1v-.477A.1.1,0,0,1,161.484,383.387Z" transform="translate(-156.858 -374.563)" fill="#b1ccfc"/>
            <path id="Path_6062" data-name="Path 6062" d="M188.217,377.037h0a.1.1,0,0,1,.13.035l.239.413a.1.1,0,0,1-.035.13h0a.1.1,0,0,1-.13-.035l-.238-.413A.1.1,0,0,1,188.217,377.037Z" transform="translate(-181.536 -368.7)" fill="#b1ccfc"/>
            <path id="Path_6063" data-name="Path 6063" d="M208.194,358.172h0a.1.1,0,0,1,.13-.035l.413.238a.1.1,0,0,1,.035.13h0a.1.1,0,0,1-.13.035l-.413-.238A.1.1,0,0,1,208.194,358.172Z" transform="translate(-199.977 -351.284)" fill="#b1ccfc"/>
            <path id="Path_6064" data-name="Path 6064" d="M216.063,331.845h0a.1.1,0,0,1,.1-.1h.477a.1.1,0,0,1,.1.1h0a.1.1,0,0,1-.1.1h-.477A.1.1,0,0,1,216.063,331.845Z" transform="translate(-207.239 -326.98)" fill="#b1ccfc"/>
            <path id="Path_6065" data-name="Path 6065" d="M209.713,302.313h0a.1.1,0,0,1,.035-.13l.413-.238a.1.1,0,0,1,.13.035h0a.1.1,0,0,1-.035.13l-.413.238A.1.1,0,0,1,209.713,302.313Z" transform="translate(-201.376 -299.503)" fill="#b1ccfc"/>
            <path id="Path_6066" data-name="Path 6066" d="M190.848,280.287h0a.1.1,0,0,1-.035-.13l.239-.413a.1.1,0,0,1,.13-.035h0a.1.1,0,0,1,.035.13l-.238.413A.1.1,0,0,1,190.848,280.287Z" transform="translate(-183.96 -279.013)" fill="#b1ccfc"/>
          </g>
        </g>
      </g>
    </g>
    <g id="Group_6343" data-name="Group 6343" transform="translate(41.285 123.999)">
      <g id="Group_6342" data-name="Group 6342" transform="translate(0 0)" clip-path="url(#clip-path-3)">
        <g id="Group_6341" data-name="Group 6341" transform="translate(-0.796 27.668)" opacity="0.7">
          <rect id="Rectangle_3245" data-name="Rectangle 3245" width="1.213" height="3.952" rx="0.606" transform="translate(2.582 3.952) rotate(180)" fill="#f2f5ff"/>
          <rect id="Rectangle_3246" data-name="Rectangle 3246" width="1.213" height="3.952" rx="0.606" transform="translate(3.952 1.369) rotate(90)" fill="#f2f5ff"/>
        </g>
      </g>
    </g>
    <g id="Group_6346" data-name="Group 6346" transform="translate(79.675 146.711)">
      <path id="Path_6069" data-name="Path 6069" d="M541.768,767.256c0,.286-2.372.519-5.3.519s-5.3-.232-5.3-.519,2.372-.519,5.3-.519S541.768,766.969,541.768,767.256Z" transform="translate(-531.173 -738.985)" fill="#007291"/>
      <g id="Group_6345" data-name="Group 6345" transform="translate(1.083)">
        <path id="Path_6070" data-name="Path 6070" d="M553.5,716.424c-.012,0-.235-.172-.241-.161a4.7,4.7,0,0,1-2.134,1.561,7.714,7.714,0,0,1-1.96-.087,1.367,1.367,0,0,0-.819.132,13.17,13.17,0,0,0-3.253,2.073c-.534.769.7.9,1.654.742a31.738,31.738,0,0,1,3.539-.164c1.268-.045,2.958.142,4.257-1.593C555.783,717.276,553.765,716.516,553.5,716.424Z" transform="translate(-544.967 -692.474)" fill="#f6ad83"/>
        <g id="Group_6344" data-name="Group 6344" transform="translate(0.09 25.389)">
          <path id="Path_6071" data-name="Path 6071" d="M559.675,737.709a1.856,1.856,0,0,0,.314-1.064,13.218,13.218,0,0,1-1.807,1.322c-1.288.8-1.77.755-3.653.747-1.781-.008-2.218.635-4,.74a3.443,3.443,0,0,0,1.346.011,31.709,31.709,0,0,1,3.539-.164C556.685,739.257,558.375,739.444,559.675,737.709Z" transform="translate(-550.185 -736.645)" fill="#f4a076"/>
          <path id="Path_6072" data-name="Path 6072" d="M546.391,770.307c-.068-.04-.168-.1-.281-.16A.677.677,0,0,0,546.391,770.307Z" transform="translate(-546.11 -767.517)" fill="#f4a076"/>
        </g>
        <path id="Path_6073" data-name="Path 6073" d="M645.641,430.351c-2.781-3.193-7.472-15.084-3.174-16.839,3.193-1.3,4.6,2.786,6.643,8.749.776,2.262,2.533,7.362,2.017,8.4-3.28,6.576-11.59,9.737-11.59,9.737l-1.706-2.345C639.711,434.91,645.755,430.482,645.641,430.351Z" transform="translate(-630.539 -413.269)" fill="#007291"/>
        <path id="Path_6074" data-name="Path 6074" d="M657.875,413.431c.928.586,2.252,2.122,3.909,6.17,3.062,7.479,3.237,9.229,2.974,10.453-.256,1.2-4.068,6.386-10.473,9.78l.414.569s8.31-3.161,11.59-9.737c.516-1.034-1.241-6.134-2.017-8.4C662.279,416.463,660.895,412.434,657.875,413.431Z" transform="translate(-645.701 -413.279)" fill="#224855"/>
      </g>
    </g>
  </g>
</svg>
