<svg xmlns="http://www.w3.org/2000/svg" xmlns:xlink="http://www.w3.org/1999/xlink" width="76" height="76" viewBox="0 0 76 76">
  <defs>
    <clipPath id="clip-path">
      <rect id="Rectangle_484" data-name="Rectangle 484" width="59.23" height="59.23" fill="#007c9d"/>
    </clipPath>
  </defs>
  <g id="ips_hsptl" transform="translate(-3927 884)">
    <rect id="Rectangle_3047" data-name="Rectangle 3047" width="76" height="76" transform="translate(3927 -884)" fill="#fff" opacity="0"/>
    <g id="Group_12268" data-name="Group 12268" transform="translate(3726 -11862.615)">
      <g id="Group_2707" data-name="Group 2707" transform="translate(209 10986.615)" clip-path="url(#clip-path)">
        <path id="Path_1711" data-name="Path 1711" d="M57.842,59.235H1.4A2.023,2.023,0,0,1,0,57.207Q.019,40.031.01,22.855a4.3,4.3,0,0,1,4.482-4.478c1.774-.01,3.547,0,5.32,0,.5,0,1.2.154,1.437-.1.269-.3.136-.972.148-1.482.017-.732-.014-1.466.013-2.2a4.3,4.3,0,0,1,4.456-4.331c.88-.01,1.761,0,2.648,0,.042-.225.08-.374.1-.524A11.093,11.093,0,0,1,35.827,1.926,10.768,10.768,0,0,1,40.62,9.757c.05.387.186.524.578.507.673-.029,1.349-.01,2.023-.007a4.329,4.329,0,0,1,4.557,4.582q.006,4.048,0,8.1v.644c1.5,0,2.9-.006,4.305,0a1.794,1.794,0,0,1,1.939,1.948q.006,1.937-.01,3.875a1.841,1.841,0,0,1-2,2.027c-1.2.016-2.39,0-3.586.006-.2,0-.407.018-.611.028v3.442h.658c1.253,0,2.506-.014,3.762.006A1.734,1.734,0,0,1,54.015,36.6q.044,2.2-.01,4.4a1.755,1.755,0,0,1-1.793,1.748c-.943.038-1.889.014-2.833.016H47.826v3.409c1.469,0,2.894-.009,4.322,0a1.789,1.789,0,0,1,1.875,1.787c.018,1.426.018,2.853-.014,4.279a1.787,1.787,0,0,1-1.824,1.792c-.578.014-1.157,0-1.734,0H47.826v3.435h9.649c.008-.165.019-.3.019-.428V22.8A2.566,2.566,0,0,0,54.8,20.11c-1.253-.011-2.506.01-3.762-.012a.866.866,0,1,1,.036-1.722c1.33-.008,2.661-.025,3.99.009A4.253,4.253,0,0,1,59.022,21.4c.063.2.138.391.207.587V57.846a2.28,2.28,0,0,1-1.387,1.39M46.023,57.475c.009-.137.019-.231.019-.324q0-21.28,0-42.559A2.545,2.545,0,0,0,43.542,12c-.77-.033-1.542.015-2.312-.018-.419-.018-.56.124-.612.538a11.059,11.059,0,0,1-15.823,8.573,10.79,10.79,0,0,1-6.182-8.58c-.039-.268-.026-.539-.438-.527-.886.025-1.779-.048-2.657.045a3.142,3.142,0,0,0-1.414.56,2.586,2.586,0,0,0-.973,2.3q.01,20.99,0,41.981v.593h6.976c.008-.129.018-.223.018-.32,0-1.562-.006-3.122.007-4.684a.839.839,0,0,1,.849-.9.852.852,0,0,1,.874.88c.019.384.006.771.006,1.157v3.857h6.848V42.267H21.867v4.373c0,.56.013,1.121-.006,1.677a.864.864,0,1,1-1.726.019c-.013-.211,0-.424,0-.636V42.28c-1.315-.225-1.734-.728-1.734-2.038,0-.5,0-1,0-1.5a1.575,1.575,0,0,1,1.727-1.718c1.041-.006,2.081,0,3.122,0H39.037a1.6,1.6,0,0,1,1.8,1.816c0,.6.01,1.2,0,1.792a1.526,1.526,0,0,1-1.181,1.521c-.176.051-.358.085-.522.122v15.2ZM11.374,20.111H4.612a2.6,2.6,0,0,0-2.869,2.866q0,16.942,0,33.883v.611h9.61V54.033c-1.432,0-2.817.006-4.2,0a1.806,1.806,0,0,1-1.921-1.862Q5.2,50.09,5.217,48.009a1.792,1.792,0,0,1,1.833-1.83c1.233-.016,2.467,0,3.7,0h.606V42.76H10.69c-1.157,0-2.313.014-3.469,0a1.841,1.841,0,0,1-2-2.03q-.013-1.908-.011-3.816a1.813,1.813,0,0,1,2-2c1.233,0,2.467.008,3.7-.013.16,0,.454-.16.457-.254.033-1.05.021-2.1.021-3.2h-.708c-1.137,0-2.275.01-3.411,0A1.857,1.857,0,0,1,5.225,29.4q-.013-1.937-.01-3.874a1.8,1.8,0,0,1,1.948-1.937c1.2-.006,2.39,0,3.585,0,.2,0,.4-.021.627-.034Zm27.613-8.98a9.365,9.365,0,1,0-9.4,9.355,9.365,9.365,0,0,0,9.4-9.355M37.333,42.276H30.518V57.47h6.815ZM39.078,38.8H20.162v1.662H39.079Zm13.18,9.142H47.825v4.312h4.433Zm0-22.58H47.821v4.3h4.437Zm0,11.326H47.82v4.3h4.436ZM7,52.261h4.351V47.923H7Zm4.367-26.9H7v4.3h4.369Zm0,11.327H7v4.3h4.369Z" transform="translate(0.001 -0.005)" fill="#007c9d"/>
        <path id="Path_1712" data-name="Path 1712" d="M113.207,166.242c1.213,0,2.427,0,3.64,0a1.808,1.808,0,0,1,1.951,1.941q.01,1.994,0,3.988a1.8,1.8,0,0,1-1.909,1.928q-3.728.014-7.454,0a1.79,1.79,0,0,1-1.9-1.878c-.011-1.387,0-2.774.023-4.162a1.766,1.766,0,0,1,1.832-1.816c1.271-.013,2.543,0,3.814,0m-3.884,6.083h7.708V168h-7.708Z" transform="translate(-90.917 -140.556)" fill="#007c9d"/>
        <path id="Path_1713" data-name="Path 1713" d="M208.534,166.245c1.213,0,2.428,0,3.641,0a1.8,1.8,0,0,1,1.942,1.945q.006,1.994-.012,3.988a1.8,1.8,0,0,1-1.911,1.921q-3.7.014-7.4,0a1.8,1.8,0,0,1-1.911-1.927q-.011-2.023,0-4.045a1.8,1.8,0,0,1,1.891-1.883c1.252-.01,2.5,0,3.756,0m-3.869,6.1h7.684V168h-7.684Z" transform="translate(-171.529 -140.559)" fill="#007c9d"/>
        <path id="Path_1714" data-name="Path 1714" d="M152.452,27.452h3.157c1.3.006,1.869.571,1.874,1.861v1.56a1.593,1.593,0,0,1-1.735,1.777c-.944.023-1.887,0-2.832.008-.13,0-.261.02-.463.038v2.9c0,1.571-.511,2.081-2.063,2.085H149.06a1.607,1.607,0,0,1-1.811-1.814c-.013-1-.01-2-.017-3a1.2,1.2,0,0,0-.062-.206h-.75c-.924-.009-1.851.018-2.772-.039a1.469,1.469,0,0,1-1.421-1.472c-.029-.731-.03-1.465,0-2.2a1.5,1.5,0,0,1,1.534-1.486c.924-.03,1.849-.01,2.773-.012h.713c0-.917.038-1.779-.008-2.636-.093-1.75.441-2.538,2.388-2.407.383.026.771,0,1.156.006a1.546,1.546,0,0,1,1.659,1.609c.031.9.01,1.811.011,2.716v.712" transform="translate(-120.23 -18.935)" fill="#007c9d"/>
      </g>
    </g>
  </g>
</svg>
