<svg xmlns="http://www.w3.org/2000/svg" xmlns:xlink="http://www.w3.org/1999/xlink" width="76" height="76" viewBox="0 0 76 76">
  <defs>
    <clipPath id="clip-path">
      <rect id="Rectangle_485" data-name="Rectangle 485" width="58" height="58" transform="translate(-0.3 -0.3)" fill="#007c9d"/>
    </clipPath>
  </defs>
  <g id="ips_speciality" transform="translate(-4040 884)">
    <rect id="Rectangle_3048" data-name="Rectangle 3048" width="76" height="76" transform="translate(4040 -884)" fill="#fff" opacity="0"/>
    <g id="Group_12269" data-name="Group 12269" transform="translate(3601.3 -11863.601)">
      <g id="Group_2709" data-name="Group 2709" transform="translate(448 10988.9)" clip-path="url(#clip-path)">
        <path id="Path_1715" data-name="Path 1715" d="M13.192,4.869c1.331.078,2.249.11,3.166.193a1.981,1.981,0,0,0,1.988-.983c.508-.782,1.037-1.551,1.578-2.311A3.9,3.9,0,0,1,25.178.542c.83.453,1.656.917,2.464,1.409a1.908,1.908,0,0,0,2.142-.008q1.188-.713,2.4-1.38A3.9,3.9,0,0,1,37.5,1.79c.527.74,1.049,1.485,1.538,2.249a2.006,2.006,0,0,0,2.038,1.018c.891-.085,1.784-.134,2.682-.171A3.989,3.989,0,0,1,48.044,8.4c.155.877.3,1.757.421,2.637a2.127,2.127,0,0,0,1.511,1.894c.759.265,1.492.607,2.232.922a4.1,4.1,0,0,1,2.5,5.3c-.244.853-.489,1.711-.747,2.56a2.008,2.008,0,0,0,.482,2.075c.659.721,1.312,1.449,1.939,2.2a4.078,4.078,0,0,1,0,5.4c-.641.769-1.319,1.507-1.982,2.253a1.935,1.935,0,0,0-.455,1.952c.29.988.586,1.976.845,2.973a4.027,4.027,0,0,1-2.2,4.788c-.877.407-1.772.776-2.675,1.119a2.078,2.078,0,0,0-1.433,1.8c-.132.953-.289,1.9-.458,2.848a3.968,3.968,0,0,1-4.058,3.384c-.964-.021-1.929-.083-2.889-.173a2.007,2.007,0,0,0-2.039,1.015c-.489.767-1.008,1.514-1.539,2.249a3.907,3.907,0,0,1-5.311,1.23q-1.215-.663-2.4-1.38a1.9,1.9,0,0,0-2.141-.007c-.807.494-1.633.958-2.464,1.409a3.9,3.9,0,0,1-5.256-1.229c-.555-.776-1.091-1.57-1.62-2.366a1.916,1.916,0,0,0-1.878-.931c-.8.067-1.606.1-2.4.16a4.043,4.043,0,0,1-4.694-3.674q-.246-1.35-.441-2.709A1.873,1.873,0,0,0,7.648,44.55c-.853-.349-1.706-.7-2.551-1.056a4.1,4.1,0,0,1-2.432-5.161c.226-.812.427-1.634.709-2.427a2.223,2.223,0,0,0-.572-2.5c-.614-.634-1.19-1.308-1.758-1.986a4.076,4.076,0,0,1,0-5.454c.629-.748,1.284-1.474,1.939-2.2a1.985,1.985,0,0,0,.465-2.017c-.29-.988-.589-1.975-.846-2.972a4.02,4.02,0,0,1,2.242-4.767c.9-.409,1.823-.771,2.739-1.143A1.98,1.98,0,0,0,8.9,11.21c.137-.952.3-1.9.465-2.847a3.881,3.881,0,0,1,3.825-3.5m30.5,45.374a1.869,1.869,0,0,0,2.233-1.821c.147-.9.277-1.809.433-2.709a4.009,4.009,0,0,1,2.5-3.2c.869-.368,1.743-.723,2.609-1.1a1.83,1.83,0,0,0,1.146-2.436q-.361-1.319-.752-2.637a4.208,4.208,0,0,1,.945-4.242c.586-.662,1.176-1.319,1.755-1.987a1.89,1.89,0,0,0,0-2.815c-.627-.719-1.276-1.418-1.89-2.149A4.1,4.1,0,0,1,51.82,21.2c.266-.947.555-1.887.809-2.837a1.821,1.821,0,0,0-1.106-2.343c-.885-.388-1.784-.747-2.673-1.125a4.01,4.01,0,0,1-2.5-3.2c-.16-.925-.287-1.855-.446-2.779a1.862,1.862,0,0,0-2.154-1.761c-.9.044-1.789.111-2.683.167A3.934,3.934,0,0,1,37.382,5.54c-.562-.8-1.1-1.623-1.665-2.419a1.755,1.755,0,0,0-2.482-.569c-.828.458-1.637.95-2.461,1.413a3.965,3.965,0,0,1-4.137-.006c-.8-.455-1.6-.925-2.4-1.372a1.762,1.762,0,0,0-2.579.6c-.525.742-1.033,1.5-1.544,2.249a3.991,3.991,0,0,1-3.838,1.876c-.848-.064-1.7-.116-2.545-.162A1.9,1.9,0,0,0,11.49,8.988c-.14.853-.282,1.713-.41,2.571a4.121,4.121,0,0,1-2.653,3.4c-.853.354-1.706.69-2.55,1.059a1.819,1.819,0,0,0-1.1,2.346c.244.9.507,1.8.776,2.7a4.231,4.231,0,0,1-.946,4.245c-.6.681-1.211,1.351-1.8,2.038a1.851,1.851,0,0,0,.005,2.706c.638.74,1.3,1.454,1.933,2.2A4.1,4.1,0,0,1,5.586,36.2c-.258.925-.533,1.845-.787,2.77a1.828,1.828,0,0,0,1.151,2.434c.866.373,1.745.718,2.609,1.094a4.052,4.052,0,0,1,2.51,3.279c.144.9.279,1.808.434,2.709a1.862,1.862,0,0,0,2.159,1.764c.9-.045,1.789-.109,2.683-.168a3.937,3.937,0,0,1,3.723,1.828c.543.789,1.068,1.586,1.624,2.363a1.751,1.751,0,0,0,2.482.573c.829-.454,1.641-.942,2.464-1.409a3.956,3.956,0,0,1,4.136,0c.8.452,1.6.926,2.4,1.376a1.767,1.767,0,0,0,2.581-.595c.524-.742,1.03-1.5,1.543-2.249a4.024,4.024,0,0,1,3.84-1.879c.848.061,1.7.1,2.546.147" transform="translate(0 0.001)" fill="#007c9d"/>
        <path id="Path_1716" data-name="Path 1716" d="M47.351,64.374A20.269,20.269,0,0,1,67.306,43.941c10.993-.026,20.025,9.21,20,20.455a19.983,19.983,0,1,1-39.957-.022M67.3,82.538A18.175,18.175,0,0,0,67.356,46.2c-9.708-.057-17.763,8.119-17.8,18.073A18.017,18.017,0,0,0,67.3,82.538" transform="translate(-38.628 -35.668)" fill="#007c9d"/>
        <path id="Path_1717" data-name="Path 1717" d="M101.881,81.623a3.832,3.832,0,0,1-.444.634q-2.094,2.114-4.213,4.195a.926.926,0,0,0-.295.931c.348,1.989.67,3.982,1.018,5.973a1,1,0,0,1-.31,1.051.894.894,0,0,1-1.07.015c-1.729-.939-3.471-1.852-5.189-2.813a1.026,1.026,0,0,0-1.145.012c-1.672.931-3.366,1.817-5.048,2.728-.388.209-.764.375-1.169.078-.42-.31-.4-.727-.316-1.2.345-1.952.656-3.91,1-5.863a.925.925,0,0,0-.3-.924c-1.419-1.383-2.812-2.792-4.219-4.189a1.014,1.014,0,0,1-.388-1.075.96.96,0,0,1,.918-.659c1.867-.275,3.732-.565,5.6-.808a1.26,1.26,0,0,0,1.127-.821c.786-1.731,1.643-3.429,2.46-5.145.2-.411.427-.728.924-.727s.725.324.921.734c.842,1.765,1.718,3.515,2.535,5.293a1,1,0,0,0,.9.635c1.886.264,3.771.543,5.655.823.726.107,1.077.427,1.059,1.118" transform="translate(-62.113 -55.104)" fill="#007c9d"/>
      </g>
    </g>
  </g>
</svg>
