<svg xmlns="http://www.w3.org/2000/svg" xmlns:xlink="http://www.w3.org/1999/xlink" width="76" height="76" viewBox="0 0 76 76">
  <defs>
    <clipPath id="clip-path">
      <rect id="Rectangle_486" data-name="Rectangle 486" width="60" height="48" transform="translate(-0.4 0)" fill="#007c9d"/>
    </clipPath>
  </defs>
  <g id="ips_planyourtrip" transform="translate(-4158 884)">
    <rect id="Rectangle_3049" data-name="Rectangle 3049" width="76" height="76" transform="translate(4158 -884)" fill="#fff" opacity="0"/>
    <g id="Group_12270" data-name="Group 12270" transform="translate(3480.4 -11863.9)">
      <g id="Group_2711" data-name="Group 2711" transform="translate(686 10993.9)" clip-path="url(#clip-path)">
        <path id="Path_1718" data-name="Path 1718" d="M78.6,58.664a1.424,1.424,0,0,1-1.31.567c-2.2-.024-4.4-.01-6.6-.01h-.666v2.292c0,.233.019.468,0,.7a1.618,1.618,0,0,0,.88,1.866,2.6,2.6,0,0,1,1.04,3.04,2.92,2.92,0,0,1-2.4,2.08,2.828,2.828,0,0,1-2.96-1.4.88.88,0,0,0-.887-.5q-10.233.018-20.465,0a.736.736,0,0,0-.784.469,4.277,4.277,0,0,1-7.65.009.752.752,0,0,0-.83-.48,11.881,11.881,0,0,1-5.538-.9,9.819,9.819,0,0,1,2.89-18.72c1.458-.16,2.941-.1,4.413-.11,1.546-.016,3.093-.006,4.64,0,.27,0,.458,0,.537-.354A4.2,4.2,0,0,1,47.174,43.8,4.25,4.25,0,0,1,51.3,47.341c.01.053.023.1.044.2.15.009.307.027.466.027,3.857,0,7.713.012,11.57,0a8.142,8.142,0,0,0,8.094-7.149,8.038,8.038,0,0,0-6.12-8.7,9.168,9.168,0,0,0-1.994-.254c-1.691-.035-3.383,0-5.075-.021a.62.62,0,0,0-.649.417,4.288,4.288,0,0,1-7.706,0,.652.652,0,0,0-.7-.415q-8.868.013-17.736,0a.606.606,0,0,0-.651.4,4.2,4.2,0,1,1,.269-2.834c.049.189.093.378.145.589h18.25c.045-.176.087-.345.13-.514a4.272,4.272,0,0,1,8.312.113c.08.386.255.43.585.433,1.946.011,3.9-.049,5.835.08a9.84,9.84,0,0,1,.694,19.52,10.675,10.675,0,0,1-1.9.153q-5.76.02-11.515,0a.694.694,0,0,0-.734.442,4.286,4.286,0,0,1-7.657.017.7.7,0,0,0-.725-.461c-2.71.018-5.421-.012-8.131.019a8.034,8.034,0,1,0-.109,16.067c.508.023,1.02-.016,1.527.021.406.03.554-.116.645-.506a4.252,4.252,0,0,1,5.68-2.978,4.027,4.027,0,0,1,2.6,2.96c.1.414.256.532.682.531q10.15-.021,20.3,0a.769.769,0,0,0,.72-.4,7.193,7.193,0,0,1,1.338-1.36c.227-.182.392-.29.39-.61q-.033-5.27-.038-10.541c0-.412.014-.825.049-1.235a.866.866,0,0,1,.843-.837.844.844,0,0,1,.937.72c.055.381.254.4.554.4,2.256-.006,4.511.01,6.767-.013a1.39,1.39,0,0,1,1.3.583v.647c-.542.758-1.1,1.508-1.613,2.285a.654.654,0,0,0,0,.59c.513.778,1.068,1.53,1.608,2.291Zm-2.725-1.3c-.262-.374-.466-.666-.671-.96-.657-.931-.656-1.04.014-1.986.2-.289.406-.578.651-.926H70.05v3.869Zm-46.48-27.28a2.418,2.418,0,1,0-2.424,2.386,2.418,2.418,0,0,0,2.424-2.386M43.024,65.952A2.414,2.414,0,1,0,40.6,68.334a2.414,2.414,0,0,0,2.426-2.382m4.094-20.326a2.4,2.4,0,1,0,1.7.721,2.381,2.381,0,0,0-1.7-.721M56.21,30.064a2.426,2.426,0,1,0-2.429,2.4,2.426,2.426,0,0,0,2.429-2.4M69.113,67.4a1.068,1.068,0,0,0,1.081-1.1,1.1,1.1,0,0,0-2.191.03,1.067,1.067,0,0,0,1.11,1.074" transform="translate(-19.396 -22.14)" fill="#007c9d"/>
        <path id="Path_1719" data-name="Path 1719" d="M18.8,4.53v.833c-.018.106-.037.212-.053.32a5.788,5.788,0,0,1-1.217,2.7,16.291,16.291,0,0,1-2.772,2.731c-1.729,1.393-3.478,2.762-5.219,4.14-.046.037-.094.071-.142.106l-.382-.3c-1.771-1.409-3.55-2.807-5.31-4.23A14.686,14.686,0,0,1,1.269,8.374,5.338,5.338,0,0,1,.075,4.09,4.922,4.922,0,0,1,6.511.245a5.218,5.218,0,0,1,2.782,2.3c.034.052.069.1.112.166.106-.16.191-.3.286-.434A4.872,4.872,0,0,1,14.4.036,4.8,4.8,0,0,1,18.618,3.61c.08.3.122.613.181.92" transform="translate(-0.002 0.003)" fill="#007c9d"/>
      </g>
    </g>
  </g>
</svg>
