<svg xmlns="http://www.w3.org/2000/svg" xmlns:xlink="http://www.w3.org/1999/xlink" width="76" height="76" viewBox="0 0 76 76">
  <defs>
    <clipPath id="clip-path">
      <rect id="Rectangle_508" data-name="Rectangle 508" width="56" height="56" fill="#007c9d"/>
    </clipPath>
  </defs>
  <g id="ips_testimonials" transform="translate(-4258 884)">
    <rect id="Rectangle_3051" data-name="Rectangle 3051" width="76" height="76" transform="translate(4258 -884)" fill="#fff" opacity="0"/>
    <g id="Group_12271" data-name="Group 12271" transform="translate(4056 -12081.305)">
      <g id="Group_2755" data-name="Group 2755" transform="translate(210 11207.305)">
        <g id="Group_2754" data-name="Group 2754" clip-path="url(#clip-path)">
          <path id="Path_1734" data-name="Path 1734" d="M83.631,112.119c-1.211-.664-1.337-1.538-.275-2.418a16.809,16.809,0,0,0,5.1-8.3c.151-.465-.085-.543-.478-.542q-2.562.005-5.124,0c-6.281-.011-11.153-4.676-11.175-10.7,0-1.13,0-2.26,0-3.39a1.139,1.139,0,0,1,1.2-1.233,1.223,1.223,0,0,1,1.424,1.16c.038.855,0,1.713.024,2.573a15.948,15.948,0,0,0,.151,2.45,8.267,8.267,0,0,0,8.213,6.631c2.467.02,4.934,0,7.4.005,1.2,0,1.8.681,1.5,1.753a32.985,32.985,0,0,1-2.749,7.1,1.892,1.892,0,0,0-.114.542,1.768,1.768,0,0,0,.615-.024,29.422,29.422,0,0,0,10.319-7.384,14.112,14.112,0,0,0,1-1.194,1.764,1.764,0,0,1,1.6-.745c2.3.011,4.6.07,6.886-.051a8.088,8.088,0,0,0,7.713-7.676q.11-8.666,0-17.33a8.113,8.113,0,0,0-8.048-7.7c-4-.082-8.008-.06-12.012-.085a5.643,5.643,0,0,1-.8-.031,1.23,1.23,0,0,1-1.109-1.407,1.18,1.18,0,0,1,1.3-1.1c4.1,0,8.2-.011,12.3.018A10.82,10.82,0,0,1,119.5,73.666q.02,8.311,0,16.623a10.8,10.8,0,0,1-11,10.581c-1.822.011-3.644-.01-5.465.016a1.065,1.065,0,0,0-.717.3,33.283,33.283,0,0,1-17.313,10.7c-.234.064-.461.151-.692.227Z" transform="translate(-63.512 -56.119)" fill="#007c9d"/>
          <path id="Path_1735" data-name="Path 1735" d="M13.172,0a5.2,5.2,0,0,1,.362.605c1.019,2.371,2.043,4.742,3.034,7.123a.722.722,0,0,0,.736.507q4.03.266,8.057.588a2.462,2.462,0,0,1,.681.272,2.462,2.462,0,0,1-.41.648q-2.979,2.457-6,4.874a.9.9,0,0,0-.378,1.1c.659,2.467,1.276,4.945,1.892,7.422a2.126,2.126,0,0,1-.048.658,2.177,2.177,0,0,1-.722-.125q-3.449-2.018-6.869-4.08a.8.8,0,0,0-.96-.008q-3.352,2.026-6.731,4a3.284,3.284,0,0,1-.866.222,3.047,3.047,0,0,1-.023-.818q.923-3.744,1.9-7.478a.605.605,0,0,0-.252-.736C4.541,13.13,2.515,11.477.488,9.829a1.346,1.346,0,0,1-.294-.255C.1,9.432-.033,9.238.008,9.114a.58.58,0,0,1,.427-.266c.773-.084,1.549-.136,2.324-.192,2.024-.147,4.047-.3,6.073-.425A.6.6,0,0,0,9.438,7.8Q10.951,4.2,12.492.623c.092-.216.227-.415.341-.622Z" transform="translate(0)" fill="#007c9d"/>
          <path id="Path_1736" data-name="Path 1736" d="M229.488,230.832h-8.7c-.854,0-1.362-.423-1.4-1.12a1.159,1.159,0,0,1,1.032-1.235,4.026,4.026,0,0,1,.624-.032H238a4.325,4.325,0,0,1,.568.023,1.18,1.18,0,0,1-.085,2.358c-.435.023-.872.009-1.308.009h-7.681" transform="translate(-194.399 -203.457)" fill="#007c9d"/>
          <path id="Path_1737" data-name="Path 1737" d="M192.9,296.757h-6.993c-.944,0-1.556-.653-1.377-1.456a1.3,1.3,0,0,1,1.414-.938c4-.058,8-.1,12-.174,1.1-.019,2.195-.108,3.293-.151.9-.038,1.476.4,1.514,1.118.036.757-.5,1.244-1.433,1.276q-4.2.144-8.408.274v.056" transform="translate(-163.487 -261.871)" fill="#007c9d"/>
          <path id="Path_1738" data-name="Path 1738" d="M275.246,163.018h5.913c.889,0,1.461.463,1.476,1.178.016.733-.573,1.221-1.489,1.221H269.377c-.925,0-1.513-.475-1.505-1.206s.585-1.193,1.518-1.193h5.856" transform="translate(-237.366 -145.187)" fill="#007c9d"/>
        </g>
      </g>
    </g>
  </g>
</svg>
