<svg xmlns="http://www.w3.org/2000/svg" xmlns:xlink="http://www.w3.org/1999/xlink" width="76" height="76" viewBox="0 0 76 76">
  <defs>
    <clipPath id="clip-path">
      <rect id="Rectangle_487" data-name="Rectangle 487" width="58" height="58" fill="#007c9d"/>
    </clipPath>
  </defs>
  <g id="ips_faq" transform="translate(-4371 884)">
    <rect id="Rectangle_3052" data-name="Rectangle 3052" width="76" height="76" transform="translate(4371 -884)" fill="#fff" opacity="0"/>
    <g id="Group_12272" data-name="Group 12272" transform="translate(3940 -12085.305)">
      <g id="Group_2713" data-name="Group 2713" transform="translate(440 11210.305)" clip-path="url(#clip-path)">
        <path id="Path_1720" data-name="Path 1720" d="M12.619,58a.9.9,0,0,1-.15-.013,1.047,1.047,0,0,1-.825-1.162q-.005-4.162,0-8.324V44.014l-.549-.178c-.372-.121-.743-.231-1.1-.338a20.234,20.234,0,0,1-2.173-.736A13.145,13.145,0,0,1,.019,30.6c-.025-6.77-.025-12.284,0-17.354C.056,6,5.623.078,12.428.044,17.87.015,23.4,0,28.862,0c5.565,0,11.222.016,16.815.045a11.9,11.9,0,0,1,8.151,3.379A13.544,13.544,0,0,1,57.9,11.659a3.784,3.784,0,0,0,.089.462l.011.06V31.754c-.042.215-.078.43-.122.646-.1.519-.187,1.009-.308,1.489A12.728,12.728,0,0,1,45.463,43.78c-2.292.008-4.636.011-7.167.011-3.231,0-6.643-.006-10.738-.019a2.317,2.317,0,0,0-1.821.784c-2.624,2.787-5.3,5.613-7.89,8.345L13.5,57.493a1.249,1.249,0,0,1-.882.507M28.978,2.051c-5.434,0-10.969.009-16.451.027A10.236,10.236,0,0,0,5.039,5.385a11.6,11.6,0,0,0-3.087,7.939c-.016,5.908-.016,11.689,0,17.183a10.963,10.963,0,0,0,10.46,11.231c.825.021,1.162.392,1.163,1.269v9.874l.6.314.555.288.392-.506c.047-.061.093-.124.139-.187a2.95,2.95,0,0,1,.216-.274q1.513-1.6,3.029-3.2c2.148-2.265,4.369-4.608,6.542-6.924a1.869,1.869,0,0,1,1.5-.664c3.383.011,6.954.017,10.623.017q4.115,0,8.23-.009a10.357,10.357,0,0,0,7.537-3.274,11.512,11.512,0,0,0,3.127-7.941c.023-5.83.023-11.632,0-17.243a11.544,11.544,0,0,0-3.093-7.908A10.231,10.231,0,0,0,45.5,2.083c-5.458-.021-11.013-.031-16.521-.031" transform="translate(-0.001)" fill="#007c9d"/>
        <path id="Path_1721" data-name="Path 1721" d="M75.477,106.279H71.462v2.713h3.356a.971.971,0,0,1,.7.221.784.784,0,0,1,.23.59.763.763,0,0,1-.235.586.984.984,0,0,1-.693.217H71.462v3.5a1.46,1.46,0,0,1-.285.988.995.995,0,0,1-1.469,0,1.464,1.464,0,0,1-.285-.985v-8.173a1.872,1.872,0,0,1,.131-.756.834.834,0,0,1,.408-.427,1.638,1.638,0,0,1,.71-.134h4.8a1.009,1.009,0,0,1,.724.228.792.792,0,0,1,.235.6.8.8,0,0,1-.235.6,1.008,1.008,0,0,1-.724.228" transform="translate(-58.637 -87.47)" fill="#007c9d"/>
        <path id="Path_1722" data-name="Path 1722" d="M120.056,113.112l-.48-1.332h-4.089l-.48,1.361a4.888,4.888,0,0,1-.48,1.075.745.745,0,0,1-.652.279,1.014,1.014,0,0,1-.975-.97,1.578,1.578,0,0,1,.069-.449q.068-.235.227-.644l2.574-6.9.264-.713a3.7,3.7,0,0,1,.33-.691,1.37,1.37,0,0,1,.46-.445,1.351,1.351,0,0,1,.705-.17,1.366,1.366,0,0,1,.71.17,1.4,1.4,0,0,1,.46.438,3.135,3.135,0,0,1,.3.576q.12.308.306.822l2.629,6.851a3.593,3.593,0,0,1,.309,1.136.965.965,0,0,1-.292.677.933.933,0,0,1-.705.308.872.872,0,0,1-.411-.091.853.853,0,0,1-.288-.246,2.3,2.3,0,0,1-.251-.478q-.134-.322-.23-.569m-4.04-2.945h3.007l-1.517-4.381Z" transform="translate(-95.358 -86.547)" fill="#007c9d"/>
        <path id="Path_1723" data-name="Path 1723" d="M186.973,113a11.154,11.154,0,0,0,.974.619,3.448,3.448,0,0,1,.7.478.7.7,0,0,1,.172.5.705.705,0,0,1-.2.463.627.627,0,0,1-.491.235,1.368,1.368,0,0,1-.567-.157,6.3,6.3,0,0,1-.784-.463q-.45-.3-.985-.709a5.1,5.1,0,0,1-2.443.536,5.337,5.337,0,0,1-2.1-.392,4.139,4.139,0,0,1-1.561-1.137,4.974,4.974,0,0,1-.951-1.764,7.42,7.42,0,0,1-.319-2.224,7.211,7.211,0,0,1,.333-2.245,4.879,4.879,0,0,1,.964-1.738,4.168,4.168,0,0,1,1.538-1.1,5.28,5.28,0,0,1,2.059-.38,5.149,5.149,0,0,1,2.687.67,4.257,4.257,0,0,1,1.7,1.9,6.8,6.8,0,0,1,.577,2.9,5.856,5.856,0,0,1-1.3,4m-1.6-1.176a3.325,3.325,0,0,0,.627-1.216,5.907,5.907,0,0,0,.2-1.629,5.224,5.224,0,0,0-.357-2.021,2.782,2.782,0,0,0-1.019-1.292,2.692,2.692,0,0,0-1.521-.438,2.628,2.628,0,0,0-1.129.242,2.5,2.5,0,0,0-.893.705,3.44,3.44,0,0,0-.59,1.184,5.628,5.628,0,0,0-.216,1.619,4.344,4.344,0,0,0,.81,2.822,2.534,2.534,0,0,0,2.046.988,2.69,2.69,0,0,0,1.043-.224,5.3,5.3,0,0,0-.807-.507,5.06,5.06,0,0,1-.662-.392.464.464,0,0,1-.179-.392.52.52,0,0,1,.172-.384.531.531,0,0,1,.377-.167,4.554,4.554,0,0,1,2.093,1.1" transform="translate(-150.697 -86.55)" fill="#007c9d"/>
        <path id="Path_1724" data-name="Path 1724" d="M254.367,105.712h-.1a.941.941,0,0,1-.7-.329,1.1,1.1,0,0,1-.314-.778,1.066,1.066,0,0,1,1.084-1.086,1.012,1.012,0,0,1,.59.192,1.231,1.231,0,0,1,.426.558,2.346,2.346,0,0,1,.151.894,3.175,3.175,0,0,1-.288,1.343,2.935,2.935,0,0,1-.705.992,1.2,1.2,0,0,1-.752.365.456.456,0,0,1-.346-.141.482.482,0,0,1-.134-.344.506.506,0,0,1,.281-.478,2.089,2.089,0,0,0,.57-.492,1.244,1.244,0,0,0,.235-.7" transform="translate(-213.91 -86.548)" fill="#007c9d"/>
        <path id="Path_1725" data-name="Path 1725" d="M281.018,126.907a2.525,2.525,0,0,1-.377,1.4,2.328,2.328,0,0,1-1.115.883,4.763,4.763,0,0,1-1.795.3,4.178,4.178,0,0,1-1.73-.326,2.53,2.53,0,0,1-1.064-.814,1.7,1.7,0,0,1-.343-.981.784.784,0,0,1,.22-.558.732.732,0,0,1,.556-.235.627.627,0,0,1,.453.152,1.66,1.66,0,0,1,.3.427,2.123,2.123,0,0,0,.69.789,1.993,1.993,0,0,0,1.1.261,1.521,1.521,0,0,0,.923-.264.749.749,0,0,0,.361-.605.835.835,0,0,0-.374-.76,4.46,4.46,0,0,0-1.232-.456,9.818,9.818,0,0,1-1.575-.532,2.594,2.594,0,0,1-.971-.735,1.742,1.742,0,0,1-.364-1.122,2.056,2.056,0,0,1,.336-1.122,2.335,2.335,0,0,1,.991-.843,3.628,3.628,0,0,1,1.582-.314,4.943,4.943,0,0,1,1.307.157,3.179,3.179,0,0,1,.968.427,2.047,2.047,0,0,1,.59.594,1.2,1.2,0,0,1,.2.637.758.758,0,0,1-.216.557.829.829,0,0,1-.615.217.727.727,0,0,1-.491-.174,3.336,3.336,0,0,1-.463-.521,1.733,1.733,0,0,0-.5-.464,1.51,1.51,0,0,0-.784-.174,1.469,1.469,0,0,0-.844.228.671.671,0,0,0-.336.568.627.627,0,0,0,.247.51,2,2,0,0,0,.665.329q.419.131,1.153.319a5.964,5.964,0,0,1,1.424.536,2.408,2.408,0,0,1,.838.735,1.693,1.693,0,0,1,.285.966" transform="translate(-231.933 -101.544)" fill="#007c9d"/>
      </g>
    </g>
  </g>
</svg>
