<svg xmlns="http://www.w3.org/2000/svg" xmlns:xlink="http://www.w3.org/1999/xlink" width="76" height="76" viewBox="0 0 76 76">
  <defs>
    <clipPath id="clip-path">
      <rect id="Rectangle_488" data-name="Rectangle 488" width="52" height="62" transform="translate(-0.027)" fill="#007c9d"/>
    </clipPath>
  </defs>
  <g id="ips_doctor" transform="translate(-4489 884)">
    <rect id="Rectangle_3050" data-name="Rectangle 3050" width="76" height="76" transform="translate(4489 -884)" fill="#fff" opacity="0"/>
    <g id="Group_12274" data-name="Group 12274" transform="translate(3807.027 -12085.345)">
      <g id="Group_12273" data-name="Group 12273" transform="translate(694 11208.345)">
        <g id="Group_2715" data-name="Group 2715" clip-path="url(#clip-path)">
          <path id="Path_1726" data-name="Path 1726" d="M12.13,39.429c-.039-.724.432-.968,1.044-1.142q2.538-.725,5.052-1.527a1.1,1.1,0,0,0,.67-.571c.322-1.1.573-2.22.817-3.341a.612.612,0,0,0-.214-.476,12.071,12.071,0,0,1-3.873-6.636.943.943,0,0,0-.5-.547A3.418,3.418,0,0,1,12.9,22.357a4.6,4.6,0,0,1,.468-3.283,10.273,10.273,0,0,1,.948-1.089,13.908,13.908,0,0,1-1.97-5.7c-.358-3.228.473-6.017,3.2-8.028a8.053,8.053,0,0,1,4.149-1.447,1.283,1.283,0,0,0,.747-.261c2.43-2.43,5.384-2.96,8.63-2.277a13.181,13.181,0,0,1,6.554,3.232,9.939,9.939,0,0,1,2.944,8.339,19.17,19.17,0,0,1-1.5,5.975,4.347,4.347,0,0,1,1.257,6.144,3.789,3.789,0,0,1-1.383,1.1,1.243,1.243,0,0,0-.788.936,11.822,11.822,0,0,1-3.686,6.315.886.886,0,0,0-.285.692c.212,1.061.46,2.118.767,3.155a1.094,1.094,0,0,0,.652.586c1.7.543,3.4,1.049,5.111,1.543.586.168,1.04.419,1,1.019a37.674,37.674,0,0,1,3.779.678A11.652,11.652,0,0,1,51.916,50.9c.054,3.306.018,6.614.017,9.922,0,.912-.271,1.173-1.191,1.173Q39.837,62,28.932,62q-13.777,0-27.554-.006C.194,61.993,0,61.8,0,60.618V51.527A11.8,11.8,0,0,1,9.97,39.616c.691-.128,1.408-.125,2.162-.188M20.117,9.6a7.856,7.856,0,0,0-2.553,3.382,11.533,11.533,0,0,0-.735,5.271c.059.9-.142,1.127-1.025,1.257a1.4,1.4,0,0,0-.832.394,2.43,2.43,0,0,0,1.341,3.754,1.081,1.081,0,0,1,.94.958,18.277,18.277,0,0,0,.97,3.228,8.455,8.455,0,0,0,12.525,3.508,9.342,9.342,0,0,0,3.84-6.619c.109-.638.349-1.005,1.023-1.089a1.646,1.646,0,0,0,1.547-1.4,6.032,6.032,0,0,0,.018-1.655,1.113,1.113,0,0,0-1.2-1.089c-.964-.022-1.144-.229-1.233-1.21a7.527,7.527,0,0,0-1.48-4.094,3.8,3.8,0,0,0-3.519-1.573A14.076,14.076,0,0,1,26.6,12.48,13.226,13.226,0,0,1,20.116,9.6M30.589,60.184H50.111a3.229,3.229,0,0,0,.039-.34c0-3.007.1-6.02-.039-9.021-.2-4.18-2.379-7.1-6.2-8.821a1.15,1.15,0,0,0-.294-.084L45,47.831c.039.134.237.215.431.3A3.5,3.5,0,1,1,40.452,51.6a3.543,3.543,0,0,1,2.057-3.473c.2-.1.49-.358.478-.523a11.64,11.64,0,0,0-1.776-5.865,1.232,1.232,0,0,0-.955-.512A1.624,1.624,0,0,0,38.16,42.51a2.909,2.909,0,0,1-.223.46c-.251.517-.754,1.069-.684,1.542.071.5.67.935,1.058,1.384.586.685.612.9.118,1.7q-1.694,2.72-3.39,5.438c-1.466,2.353-2.932,4.708-4.453,7.152m-9.344.008c-.283-.462-.5-.824-.727-1.184L13.36,47.536c-.457-.732-.437-.95.122-1.587.3-.335.586-.682.907-1a.566.566,0,0,0,.112-.787,10.222,10.222,0,0,1-.881-1.769,1.47,1.47,0,0,0-1.913-1.137c-.5.106-1.147.119-1.476.433-1.68,1.6-2.063,3.686-2.078,5.9a13.366,13.366,0,0,1,1.475.127,5.587,5.587,0,0,1,4.363,6.139c-.044.535-.224.908-.782,1.005-.764.138-1.785-.211-1.944-.67a.846.846,0,0,1,.455-1.127,2.518,2.518,0,0,1,.468-.137,3.722,3.722,0,0,0-2.607-3.406,3.218,3.218,0,0,0-3.483,1.2,3.439,3.439,0,0,0-.194,3.96c.073-.019.153-.036.233-.061a.887.887,0,0,1,1.232.475c.214.5-.043.954-.643,1.2-.3.121-.607.216-.9.335A.881.881,0,0,1,4.7,56.272a5.435,5.435,0,0,1,1.257-7.8.855.855,0,0,0,.41-.773,19.319,19.319,0,0,1,.261-2.731,27.889,27.889,0,0,1,.812-2.7c-.3.168-.586.3-.856.473a9.8,9.8,0,0,0-4.793,8.554c-.032,2.794-.008,5.589-.005,8.383,0,.163.029.326.048.515ZM15.093,15.451l.035-.251A10.324,10.324,0,0,1,19.2,8.054c.89-.659,1.105-.632,1.961.067a11.638,11.638,0,0,0,8.493,2.731A5.4,5.4,0,0,1,34.553,13,24.007,24.007,0,0,1,36.1,15.487c.225-1.229.517-2.39.635-3.567a8.057,8.057,0,0,0-2.8-7.523,11.8,11.8,0,0,0-5.6-2.463c-2.674-.462-5.083.028-6.944,2.214a1.656,1.656,0,0,1-1.083.38C17.7,4.662,15.67,5.69,14.6,8.179s-.447,4.878.494,7.277M28.189,60.192l2.253-14.8H21.384l2.255,14.8ZM21.081,43.406a3.519,3.519,0,0,0,.419.1,49.986,49.986,0,0,0,8.758.02c.423-.035.523-.259.572-.6.182-1.265.335-2.537.578-3.791a3.671,3.671,0,0,0-.3-2.7,4.736,4.736,0,0,1-.376-1.216c-.128-.5-.231-1.02-.359-1.586a10.724,10.724,0,0,1-8.858,0,1.4,1.4,0,0,0-.107.2q-.565,1.823-1.122,3.649a.886.886,0,0,0-.039.374q.411,2.778.838,5.551m.131,13.307.09-.037L18.533,38.541l-4.226,1.265c.548,1.1,1.077,2.132,1.592,3.179,1.045,2.136,1.168,1.645-.448,3.427a.67.67,0,0,0-.094.979c1.852,2.923,3.671,5.865,5.5,8.8.111.178.235.349.353.522M33.3,38.536l-2.74,18a1.306,1.306,0,0,0,.53-.521q2.375-3.805,4.746-7.614c.3-.488.861-1.015.813-1.473-.052-.493-.679-.926-1.056-1.385-.027-.033-.054-.066-.084-.1a.993.993,0,0,1-.168-1.281c.609-1.173,1.193-2.361,1.783-3.545.128-.258.24-.524.378-.824l-4.2-1.261M45.71,51.4a1.741,1.741,0,1,0-1.82,1.614A1.741,1.741,0,0,0,45.71,51.4" transform="translate(0.001 0)" fill="#007c9d"/>
        </g>
      </g>
    </g>
  </g>
</svg>
