<svg xmlns="http://www.w3.org/2000/svg" xmlns:xlink="http://www.w3.org/1999/xlink" width="76" height="76" viewBox="0 0 76 76">
  <defs>
    <clipPath id="clip-path">
      <rect id="Rectangle_509" data-name="Rectangle 509" width="58" height="47.027" fill="#007c9d"/>
    </clipPath>
  </defs>
  <g id="ips_onlineconsultation" transform="translate(-4081 749)">
    <rect id="Rectangle_3054" data-name="Rectangle 3054" width="76" height="76" transform="translate(4081 -749)" fill="#fff" opacity="0"/>
    <g id="Group_12275" data-name="Group 12275" transform="translate(4023 -788.856)">
      <g id="Group_2757" data-name="Group 2757" transform="translate(67 53.856)" clip-path="url(#clip-path)">
        <path id="Path_1739" data-name="Path 1739" d="M0,42.144a1.394,1.394,0,0,1,1.313-.575c1.394.031,2.789.01,4.124.01V12.031A2.731,2.731,0,0,1,8.422,9.045h5.323c.774,0,1.191.314,1.2.886.011.592-.422.919-1.227.92H8.453c-.933,0-1.2.274-1.2,1.216,0,9.319.016,18.638-.017,27.958-.005,1.545.553,1.677,1.862,1.489A17.9,17.9,0,0,1,11.712,30.2a16.493,16.493,0,0,1,9.293-6.99c-.27-.2-.48-.345-.683-.5a8.453,8.453,0,0,1-3.549-6.925c-.042-3.689-.018-7.38-.008-11.07a4.678,4.678,0,0,1,4.7-4.7q3.908-.018,7.815,0a4.674,4.674,0,0,1,4.689,4.666c.015,3.709.04,7.419-.008,11.13a8.477,8.477,0,0,1-3.7,7.022l-.429.314c8.613,3.166,12.329,9.432,11.837,18.435h7.851c.941,0,1.219-.272,1.219-1.2V24.845a2.959,2.959,0,0,1,.017-.564.9.9,0,0,1,1.773-.025,2.664,2.664,0,0,1,.021.563V40.351c0,.392-.045.784-.072,1.227H56.65c1.115,0,1.425.324,1.332,1.426A4.341,4.341,0,0,1,53.7,47.028C37.293,46.976,20.889,47,4.484,47a4.1,4.1,0,0,1-4.374-3.37A1.629,1.629,0,0,0,0,43.387V42.144m10.909-.6H39.838c.554-7.872-2.927-12.7-7.184-15.064.235,1.134.488,2.265.691,3.406a.862.862,0,0,0,.585.761,3.3,3.3,0,0,1,1.948,3.686,3.347,3.347,0,1,1-4.768-3.641c.164-.078.33-.157.508-.243a16.1,16.1,0,0,0-1.347-4.9.9.9,0,0,0-.462-.435,13.768,13.768,0,0,0-7.368-.379.705.705,0,0,0-.46.328c-.5,1.308-.964,2.629-1.446,3.964A3.86,3.86,0,0,1,23.516,32.5c.128,2.116.048,4.251.034,6.378a.844.844,0,0,1-.855.879,5.791,5.791,0,0,1-1.019,0,.892.892,0,0,1-.295-1.7c.114-.055.235-.1.364-.152,0-1.706.024-3.4-.009-5.095a2.153,2.153,0,0,0-2.185-2.075,2.153,2.153,0,0,0-2.315,1.995c-.049,1.729-.013,3.46-.013,5.191.093.031.164.053.235.078a.862.862,0,0,1,.646,1,.881.881,0,0,1-.96.774c-.227,0-.453.005-.68,0-.71-.016-1.053-.336-1.055-1.034-.007-1.995-.04-3.991.012-5.985a3.384,3.384,0,0,1,2.147-3.311,2.323,2.323,0,0,0,1.641-2.078,4.807,4.807,0,0,1,.172-.6c.112-.36.227-.719.359-1.137-5.762,2.142-9.445,8.818-8.832,15.918M18.685,10.88a55.35,55.35,0,0,0,.039,5.945A6.718,6.718,0,0,0,32,16.977a60.24,60.24,0,0,0,.225-6.1ZM1.991,43.407a2.126,2.126,0,0,0,2.144,1.787H53.861a2.116,2.116,0,0,0,2.148-1.788Zm16.593-34.4h13.58c0-1.543.042-3.048-.012-4.546a2.8,2.8,0,0,0-2.7-2.629q-4.076-.048-8.151,0a2.8,2.8,0,0,0-2.7,2.626c-.053,1.5-.012,3.007-.012,4.552M34.151,33.675a1.528,1.528,0,1,0-1.521,1.536,1.528,1.528,0,0,0,1.521-1.536" transform="translate(0 -0.001)" fill="#007c9d"/>
        <path id="Path_1740" data-name="Path 1740" d="M238.63,42.052c-3.226,0-6.452,0-9.679,0-.543,0-1.041-.049-1.23-.655-.183-.586.193-.893.627-1.184a6.427,6.427,0,0,0,2.8-5.236c.157-2.682.095-5.377.144-8.065a3.889,3.889,0,0,1,.174-1.161,2.631,2.631,0,0,1,2.508-1.774q7.274-.014,14.546,0a2.669,2.669,0,0,1,2.692,2.7q.022,6.322,0,12.644a2.688,2.688,0,0,1-2.789,2.721c-3.264.009-6.528,0-9.792,0M231.055,40.2a2.536,2.536,0,0,0,.253.035h17.038c.744,0,1.056-.349,1.057-1.146V26.956c0-.875-.306-1.176-1.2-1.176H234.278c-.886,0-1.184.3-1.185,1.187v6.1a11.185,11.185,0,0,1-2.038,7.137" transform="translate(-193.221 -20.356)" fill="#007c9d"/>
        <path id="Path_1741" data-name="Path 1741" d="M154.112,22.356c.1-.952.367-1.323.941-1.324s.854.374.941,1.285c1.01.19,1.332.428,1.32.982s-.358.82-1.3.936c-.146.965-.419,1.325-.991,1.306s-.846-.406-.888-1.165a9.511,9.511,0,0,1-1.177-.615c-.125-.088-.157-.379-.148-.573.034-.539.4-.766,1.3-.832" transform="translate(-129.685 -17.858)" fill="#007c9d"/>
        <path id="Path_1742" data-name="Path 1742" d="M292.052,59.918c1.133,0,2.265,0,3.4,0,.665,0,1.072.354,1.071.9s-.408.9-1.073.9q-3.454.008-6.908,0c-.667,0-1.071-.354-1.071-.9s.4-.9,1.072-.9c1.17-.006,2.34,0,3.511,0" transform="translate(-243.968 -50.874)" fill="#007c9d"/>
        <path id="Path_1743" data-name="Path 1743" d="M291.09,95.847c.85,0,1.7-.005,2.548,0,.665.005,1.072.354,1.071.9s-.408.9-1.072.9q-2.548.009-5.095,0c-.667,0-1.071-.354-1.071-.9s.4-.9,1.071-.9c.85-.007,1.7,0,2.548,0" transform="translate(-243.969 -81.38)" fill="#007c9d"/>
      </g>
    </g>
  </g>
</svg>
