<svg xmlns="http://www.w3.org/2000/svg" xmlns:xlink="http://www.w3.org/1999/xlink" width="76" height="76" viewBox="0 0 76 76">
  <defs>
    <clipPath id="clip-path">
      <rect id="Rectangle_510" data-name="Rectangle 510" width="58" height="54" transform="translate(-0.067 0.369)" fill="#007c9d"/>
    </clipPath>
  </defs>
  <g id="ips_Apollo_Insurance" data-name="ips_Apollo Insurance" transform="translate(-4194 749)">
    <rect id="Rectangle_3055" data-name="Rectangle 3055" width="76" height="76" transform="translate(4194 -749)" fill="#fff" opacity="0"/>
    <g id="Group_12276" data-name="Group 12276" transform="translate(4133.266 -781.932)">
      <g id="Group_2759" data-name="Group 2759" transform="translate(67.801 43.563)" clip-path="url(#clip-path)">
        <path id="Path_1744" data-name="Path 1744" d="M57.865,36.235a6.037,6.037,0,0,1-2.566,3.5q-6.759,5.232-13.444,10.55a7.706,7.706,0,0,1-6.161,1.63c-3.879-.524-7.771-.947-11.658-1.408q-3.448-.411-6.9-.812a1.173,1.173,0,0,0-.494.014c-.973.336-1.939.692-2.979,1.067.529.974-.1,1.372-.836,1.774a18.714,18.714,0,0,1-6.647,2.179.961.961,0,0,1-1.147-.646A137.53,137.53,0,0,1,.059,40.294a.9.9,0,0,1,.457-1.168,18.408,18.408,0,0,1,6.906-2.44c.929-.131,1.111-.017,1.466.812.051.118.1.235.156.348.87-.02.99-.12,1.15-.873a5.378,5.378,0,0,1,3.015-3.918q6.476-3.128,12.981-6.2A5.037,5.037,0,0,1,32.308,28.2a4.783,4.783,0,0,1,0,6.128.5.5,0,0,0-.015.721,1.929,1.929,0,0,0,2.05.716,1.877,1.877,0,0,0,1.359-1.6c.016-.164.009-.332.009-.5,0-4.457.009-8.919-.016-13.38a1.809,1.809,0,0,0-.376-1.042,4.559,4.559,0,0,0-7.329.345c-.051.078-.1.156-.149.235-.49.765-1.186.769-1.662-.01a4.587,4.587,0,0,0-7.663-.348c-.1.133-.181.28-.268.422a.855.855,0,0,1-1.035.461A.841.841,0,0,1,16.6,19.4a17.962,17.962,0,0,1,1.609-7.515A19.479,19.479,0,0,1,33.711.242a19.5,19.5,0,0,1,14.4,3.38c.618.425.776.888.469,1.329s-.843.463-1.481.021a18.31,18.31,0,0,0-4.55-2.3c-.225-.078-.456-.138-.835-.251,3.639,4.377,4.737,9.453,5.213,14.815a6.463,6.463,0,0,1,7.735-.147c-.171-.809-.278-1.472-.454-2.115a17.6,17.6,0,0,0-4.149-7.443c-.051-.055-.1-.107-.156-.163a.852.852,0,1,1,1.256-1.129,37.308,37.308,0,0,1,2.7,3.6,18.258,18.258,0,0,1,2.659,9.42c.007.5-.062.938-.632,1.089-.538.143-.827-.171-1.082-.582A4.563,4.563,0,0,0,47,19.732c-.563.893-1.206.883-1.782-.027a4.557,4.557,0,0,0-7.489-.364,1.621,1.621,0,0,0-.3.9c-.02,4.571,0,9.141-.019,13.711a3.613,3.613,0,0,1-6.751,1.712l-4.791,2.81,2.632.449c2.261.391,4.525.766,6.783,1.173a5.417,5.417,0,0,0,4.027-.841Q45.025,35.6,50.77,31.976a4.566,4.566,0,0,1,6.584,1.6,11.823,11.823,0,0,1,.508,1.329ZM13.2,49.144c.987-.356,1.93-.713,2.886-1.03a2.486,2.486,0,0,1,.988-.13c1.293.125,2.581.292,3.87.447,5.083.61,10.166,1.206,15.249,1.842a5.78,5.78,0,0,0,4.563-1.28C44.1,46.31,47.5,43.68,50.881,41.028c1.408-1.107,2.834-2.2,4.223-3.328a2.592,2.592,0,0,0,.913-2.932,2.767,2.767,0,0,0-2.458-1.909,3.084,3.084,0,0,0-1.955.581c-3.769,2.4-7.552,4.787-11.315,7.2a7.133,7.133,0,0,1-5.266,1.112c-1.982-.347-3.966-.68-5.95-1.017-1.872-.32-3.744-.643-5.617-.956a.9.9,0,0,1-.846-.692.852.852,0,0,1,.509-.956c.13-.078.259-.15.391-.226L30,34.1a3.106,3.106,0,0,0,1.681-3.035,3.293,3.293,0,0,0-4.9-2.627c-4.18,1.986-8.348,3.993-12.526,5.982a3.822,3.822,0,0,0-2.419,3.722.914.914,0,0,1-.786.992c-.432.1-.856.241-1.324.374.276.713.539,1.379.794,2.05.235.619.092,1.074-.391,1.27-.505.207-.956-.038-1.21-.669-.448-1.113-.911-2.22-1.329-3.344-.136-.368-.332-.421-.675-.352A17.963,17.963,0,0,0,2.3,40.054c-.353.179-.446.343-.307.724q2.137,5.87,4.239,11.756c.134.375.335.492.711.379,1.059-.317,2.132-.6,3.175-.958a20.124,20.124,0,0,0,1.864-.852c-.045-.156-.063-.23-.086-.3-.572-1.733-1.149-3.464-1.713-5.2a.844.844,0,0,1,.5-1.18.878.878,0,0,1,1.13.644c.059.156.1.313.156.469.4,1.182.8,2.365,1.221,3.6M37.455,1.7V17.165a6.539,6.539,0,0,1,7.734-.041c-.078-.727-.13-1.385-.215-2.038a24.307,24.307,0,0,0-2.916-9.273,9.263,9.263,0,0,0-2.8-3.2,17.884,17.884,0,0,0-1.8-.92m-1.772-.013a17.927,17.927,0,0,0-1.831.95,9.847,9.847,0,0,0-3.018,3.6,24.925,24.925,0,0,0-2.7,9c-.078.6-.115,1.211-.18,1.914a6.449,6.449,0,0,1,7.726.044ZM18.549,17.011a6.523,6.523,0,0,1,7.649.207c.48-5.357,1.573-10.438,5.152-14.707-5.576.659-12.693,8.708-12.8,14.5" transform="translate(0.002 0.001)" fill="#007c9d"/>
        <path id="Path_1745" data-name="Path 1745" d="M164.573,206.928a2.066,2.066,0,0,1-1.858-.98,21.4,21.4,0,0,1-1.157-2.559.8.8,0,0,1,.553-1.095c.508-.143.892.117,1.1.674.235.619.5,1.225.773,1.828.2.445.526.531.961.284a8.948,8.948,0,0,1,.953-.475.782.782,0,0,1,1.022.336.7.7,0,0,1-.123,1,4.594,4.594,0,0,1-2.224.99" transform="translate(-137.103 -172.373)" fill="#007c9d"/>
        <path id="Path_1746" data-name="Path 1746" d="M50.328,332.307a.86.86,0,0,1,.837.86.818.818,0,0,1-.881.8.847.847,0,0,1-.818-.818.868.868,0,0,1,.86-.84" transform="translate(-41.995 -283.215)" fill="#007c9d"/>
      </g>
    </g>
  </g>
</svg>
