<svg xmlns="http://www.w3.org/2000/svg" xmlns:xlink="http://www.w3.org/1999/xlink" width="76" height="76" viewBox="0 0 76 76">
  <defs>
    <clipPath id="clip-path">
      <rect id="Rectangle_511" data-name="Rectangle 511" width="54" height="62.437" fill="#007c9d"/>
    </clipPath>
  </defs>
  <g id="ips_visa" transform="translate(-4312 749)">
    <rect id="Rectangle_3053" data-name="Rectangle 3053" width="76" height="76" transform="translate(4312 -749)" fill="#fff" opacity="0"/>
    <g id="Group_12277" data-name="Group 12277" transform="translate(4250.715 -785.493)">
      <g id="Group_2761" data-name="Group 2761" transform="translate(72.285 43.493)" clip-path="url(#clip-path)">
        <path id="Path_1747" data-name="Path 1747" d="M40.375,62.435A22.927,22.927,0,0,1,37.86,61.8a11.213,11.213,0,0,1-7.6-9.154c-.031-.18-.072-.358-.123-.613H5.717a5.681,5.681,0,0,1-3.6-1.049A5.385,5.385,0,0,1,0,46.423Q.006,31.217,0,16.006c0-3.515-.014-7.03.005-10.547A5.044,5.044,0,0,1,2.98.554,6.013,6.013,0,0,1,5.44.023Q21.767-.029,38.089,0c1.012,0,1.35.354,1.35,1.421q0,8.229-.007,16.458a.979.979,0,0,0,.487,1,4.182,4.182,0,0,1,.824.715c3.414,3.416,6.812,6.849,10.239,10.252A9.787,9.787,0,0,1,54,37.116q-.025,11.917,0,23.834a1.544,1.544,0,0,1-.73,1.485ZM30.064,49.913a3.1,3.1,0,0,0-1.056-2.384c-2.174-2.189-4.387-4.338-6.5-6.581a5.175,5.175,0,1,1,7.569-7.061c2.256,2.221,4.477,4.479,6.713,6.719.151.152.312.294.532.5V2.077H5.422A3.142,3.142,0,0,0,2.08,5.452Q2.071,26,2.093,46.543a4.05,4.05,0,0,0,.372,1.7A3.193,3.193,0,0,0,5.691,49.96q11.857-.037,23.714-.047h.659m9.38-28.632v.79q0,10.273-.009,20.545a1.391,1.391,0,0,0,.458,1.117q1.193,1.13,2.32,2.329a1,1,0,0,1,.027,1.477,1.056,1.056,0,0,1-1.48-.016c-.138-.118-.261-.253-.39-.385l-9.245-9.269c-.154-.154-.317-.3-.446-.422l-4.372,4.393c.055.062.143.169.242.27q1.952,1.965,3.909,3.927a5.342,5.342,0,0,1,1.687,3.537,21.79,21.79,0,0,0,.3,3.448,9.248,9.248,0,0,0,9.17,7.333c3.264.024,6.526.005,9.787,0,.155,0,.31-.024.515-.041v-.694q0-11.248.006-22.5a7.781,7.781,0,0,0-2.39-5.791c-3.2-3.173-6.369-6.374-9.553-9.563-.136-.136-.282-.26-.534-.492M29.1,35.857a3.259,3.259,0,0,0-3.49-1.259,2.878,2.878,0,0,0-2.238,2.4,3.206,3.206,0,0,0,1.369,3.251L29.1,35.857" transform="translate(0.002 0.002)" fill="#007c9d"/>
        <path id="Path_1748" data-name="Path 1748" d="M92.57,66.246A10.378,10.378,0,1,1,82.2,55.859,10.378,10.378,0,0,1,92.57,66.246M81.133,58.392l-.163-.07c-2.067,1.785-2.624,4.219-2.883,6.85h3.046ZM78.1,67.336a10.657,10.657,0,0,0,1.985,5.953,10.04,10.04,0,0,0,1.039,1V67.333Zm5.181-2.161h3.037c-.314-2.6-.8-5.077-3.044-6.954Zm-.016,8.972c1.719-.752,3.112-4.681,2.953-6.8H83.261Zm-9.292-8.933c.61,0,1.116.033,1.614-.019a.644.644,0,0,0,.438-.4c.1-.387.056-.812.153-1.2.338-1.342.705-2.674,1.061-4.007a8.31,8.31,0,0,0-3.266,5.621m16.446-.039a8.259,8.259,0,0,0-3.223-5.542l1.382,5.542ZM74.022,67.343c.059,1.931,1.762,4.833,3.174,5.446-.337-1.277-.707-2.639-1.054-4.007-.121-.477-.028-1.2-.315-1.395-.359-.249-1.012-.077-1.535-.084a2.006,2.006,0,0,0-.271.038m14.555-.008-1.39,5.546A8.216,8.216,0,0,0,90.4,67.333Z" transform="translate(-62.459 -48.56)" fill="#007c9d"/>
        <path id="Path_1749" data-name="Path 1749" d="M36.888,311.022c-.688,0-1.379.044-2.063-.008a3.064,3.064,0,0,1-3.03-3.163c-.042-1.3-.021-2.6-.005-3.9.009-.768.438-1.241,1.056-1.232s1.006.474,1.012,1.261c.01,1.2,0,2.395.005,3.592.007,1,.362,1.363,1.35,1.372,1.194.011,2.39-.035,3.581.025a1.693,1.693,0,0,1,1.1.481.945.945,0,0,1-.7,1.53c-.759.072-1.535.015-2.3.015v.02" transform="translate(-27.633 -263.168)" fill="#007c9d"/>
        <path id="Path_1750" data-name="Path 1750" d="M36.931,31.78c.668,0,1.336-.013,2,0,.737.019,1.181.416,1.189,1.029.008.64-.443,1.037-1.22,1.044-1.072.009-2.146,0-3.218,0-1.548,0-1.777.233-1.777,1.812,0,1.035.005,2.07,0,3.1-.006.861-.352,1.3-1.012,1.311s-1.056-.457-1.061-1.337c-.008-1.218-.019-2.435,0-3.653a3.155,3.155,0,0,1,3.334-3.315c.591-.008,1.174,0,1.761,0" transform="translate(-27.677 -27.623)" fill="#007c9d"/>
      </g>
    </g>
  </g>
</svg>
