<svg xmlns="http://www.w3.org/2000/svg" width="68" height="68" viewBox="0 0 68 68">
  <g id="neurology" transform="translate(-2469 729)">
    <rect id="Rectangle_3015" data-name="Rectangle 3015" width="68" height="68" rx="3" transform="translate(2469 -729)" fill="#eceef3" opacity="0"/>
    <g id="Group_12209" data-name="Group 12209" transform="translate(1050.991 -2228.231)">
      <g id="Group_11331" data-name="Group 11331" transform="translate(-12341.977 -1182.758)">
        <path id="Path_5877" data-name="Path 5877" d="M166.155,107.2c-.4-1.254-.881-2.769-1.413-4.489-1.35-4.348-4.411-4.094-7.657-3.819a17.6,17.6,0,0,1-2.955.085,4.758,4.758,0,0,1-3.551-1.67,4.461,4.461,0,0,1-.632-3.516c.078-.395.2-.768.3-1.1.256-.824.376-1.275.114-1.663a2.3,2.3,0,0,1-.469-2.05,1.925,1.925,0,0,1,1.151-1.149l.021-.007.3-.092c-.234-.092-.426-.176-.582-.254-1.016-.528-.682-2.22-.384-3.72a1.36,1.36,0,0,0-.206-.063l-.021-.007-2.273-.6a2.5,2.5,0,0,1-.966-.486l-.021-.014a2.477,2.477,0,0,1-.653-.853,2.44,2.44,0,0,1,.369-2.621l5.5-7.624c.014-.162.028-.486.028-.916a10.518,10.518,0,0,0-.05-1.212l-.007-.014-.021-.1a8.823,8.823,0,0,1-.213-2.769c.007-.19.021-.373.021-.536-.036-6.652,2.55-11.641,7.671-14.825,3.885-2.417,9.163-3.763,15.683-3.988a25.215,25.215,0,0,1,9.646,1.459,21.206,21.206,0,0,1,12.409,11.944,23.325,23.325,0,0,1,1.74,8.956,21.112,21.112,0,0,1-1.371,7.5A22.115,22.115,0,0,1,193.87,83.4c-3.864,4.573-3.537,7.878-.682,14.888l-1.314.528c-1.392-3.417-2.315-6.215-2.294-8.78.021-2.628,1.009-4.954,3.2-7.54a19.931,19.931,0,0,0,4.83-13.007,20.891,20.891,0,0,0-6.293-15.276c-4.113-3.939-9.66-5.9-16.031-5.672-6.272.218-11.308,1.494-14.98,3.777-4.681,2.917-7.039,7.5-7.018,13.635q0,.3-.021.613a7.377,7.377,0,0,0,.156,2.3,5.631,5.631,0,0,1,.135,1.726c0,1.311-.085,1.473-.22,1.635l-5.6,7.779-.021.028a1.032,1.032,0,0,0-.17,1.127,1.044,1.044,0,0,0,.7.585h.014l2.273.6a2.864,2.864,0,0,1,.81.324,1.064,1.064,0,0,1,.511,1.12c-.014.078-.028.155-.05.24a8.361,8.361,0,0,0-.249,2.276,12.425,12.425,0,0,0,1.79.585.89.89,0,0,1,.043,1.712l-1.854.585a.493.493,0,0,0-.277.261,1.136,1.136,0,0,0,.291.81,3.094,3.094,0,0,1,.078,2.882,8.673,8.673,0,0,0-.263.958,3.067,3.067,0,0,0,.376,2.4,3.4,3.4,0,0,0,2.536,1.106,16.421,16.421,0,0,0,2.706-.092,13.039,13.039,0,0,1,5.135.261c1.946.648,3.253,2.135,4,4.552.533,1.719,1.009,3.22,1.414,4.474Z" transform="translate(13620.953 2638.886)"/>
        <path id="Path_5878" data-name="Path 5878" d="M258,113.9c-1.83,0-3.759-.329-4.812-1.307a2.449,2.449,0,0,1-.813-1.95,2.222,2.222,0,0,1-1.173-1.457,5.728,5.728,0,0,0-1.562.321,7.76,7.76,0,0,1-6.741-.757l-.551-.386a12.266,12.266,0,0,1-1.7-1.321,1.771,1.771,0,0,1-.558-1.414,1.442,1.442,0,0,1-.212-.3,1.074,1.074,0,0,0-.5-.379,7.122,7.122,0,0,1-3.215-1.393,4.378,4.378,0,0,1-3.024-2.314,3.794,3.794,0,0,1,.1-3.493.74.74,0,0,0,.078-.414c-.1-1.136.24-3.371,3.674-5.635a.609.609,0,0,0,.2-.207l.007-.014a5.015,5.015,0,0,1,3.42-2.443h.007a.706.706,0,0,0,.382-.164c.89-.764,3.271-2.5,6.034-1.971a.627.627,0,0,0,.3-.014l.014-.007a10.256,10.256,0,0,1,6.232.093.683.683,0,0,0,.367.043,5.622,5.622,0,0,1,4.31,1.071.656.656,0,0,0,.353.136A5.994,5.994,0,0,1,263.3,91.54l.007.007a.691.691,0,0,0,.191.214l.007.007a6.4,6.4,0,0,1,2.621,3.414.654.654,0,0,0,.106.243c.933,1.443,3.017,5.064,2.431,7.6v.007a.578.578,0,0,0-.014.243v.021c.127.979.247,3.4-1.314,4.857a6.271,6.271,0,0,1-3.038,1.914,4.435,4.435,0,0,1-.2,1.029,3.685,3.685,0,0,1-2.932,2.479A15.362,15.362,0,0,1,258,113.9Zm-4.2-3.328a1.045,1.045,0,0,0,.346.971c1.1,1.021,4.367,1.157,6.726.643a2.365,2.365,0,0,0,2.007-2.7l-.155-.964.961.143c.466.071,1.032.007,2.692-1.55,1.1-1.029.954-3.014.876-3.614a1.928,1.928,0,0,1,.042-.8c.382-1.643-.911-4.436-2.247-6.5l-.007-.014a2.3,2.3,0,0,1-.29-.707,5.347,5.347,0,0,0-2.056-2.543,2.137,2.137,0,0,1-.608-.679,4.628,4.628,0,0,0-3.568-2.607,2.09,2.09,0,0,1-1.074-.407,4.23,4.23,0,0,0-3.236-.814,2.166,2.166,0,0,1-1.1-.114H253.1a8.81,8.81,0,0,0-5.342-.064,1.991,1.991,0,0,1-.982.05c-2.155-.414-4.112,1.021-4.854,1.657a2.117,2.117,0,0,1-1.145.493A3.628,3.628,0,0,0,238.4,92.23a2.13,2.13,0,0,1-.629.657l-.007.007c-2.925,1.929-3.1,3.657-3.038,4.314v.014a2.13,2.13,0,0,1-.247,1.207,2.344,2.344,0,0,0-.078,2.186,3,3,0,0,0,2.2,1.579l.233.036.163.171a5.258,5.258,0,0,0,2.65,1.15,2.392,2.392,0,0,1,1.42,1.029l.021.036a.476.476,0,0,0,.1.114.961.961,0,0,1,.3,1c-.014.057-.028.121.163.321a12.423,12.423,0,0,0,1.491,1.143c.177.121.36.25.551.393a6.378,6.378,0,0,0,5.469.571,6.108,6.108,0,0,1,2.918-.357l.855.164-.332.814c-.12.293.325.571.6.707l.007.007a1.019,1.019,0,0,1,.579,1.079Z" transform="translate(13545.244 2604.705)" fill="#ed8851"/>
        <path id="Path_5879" data-name="Path 5879" d="M358.53,269.1a1.163,1.163,0,0,1-.221-.021,1.861,1.861,0,0,1-1.164-.893,11.468,11.468,0,0,1-1.057-2.086,6.025,6.025,0,0,0-2.171-3.014,5.587,5.587,0,0,1-2.264-4.743l1.421.114-.714-.057.714.057a4.123,4.123,0,0,0,1.664,3.471,7.333,7.333,0,0,1,2.657,3.621,10.13,10.13,0,0,0,.929,1.843,1.6,1.6,0,0,0,.164.207.672.672,0,0,0,.1-.293,23.684,23.684,0,0,1-.193-3.528c-.014-.579-.021-1.178-.036-1.336l1.421-.15c.021.207.029.664.05,1.457a31.654,31.654,0,0,0,.15,3.207,1.994,1.994,0,0,1-.7,1.886,1.269,1.269,0,0,1-.75.257Z" transform="translate(13441.794 2454.698)" fill="#ed8851"/>
        <path id="Path_5880" data-name="Path 5880" d="M382.214,245.412a9.516,9.516,0,0,1-2.078-.229l.343-1.386-.171.693.171-.693a7.22,7.22,0,0,0,3.393-.043c4.7-1.55,6.9-.779,7.792-.179a2.277,2.277,0,0,1,1.093,1.728l-1.421.1a.924.924,0,0,0-.464-.643c-.543-.364-2.271-1.064-6.557.35a6.878,6.878,0,0,1-2.1.3Z" transform="translate(13416.806 2468.284)" fill="#ed8851"/>
        <path id="Path_5881" data-name="Path 5881" d="M284.3,172.963a3.542,3.542,0,0,1,1.7-3.428,9.781,9.781,0,0,0,1.343-1.121,3.519,3.519,0,0,1,2.95-1.357.258.258,0,0,1,.079.014,5.886,5.886,0,0,0,3.9-.786c.136-.086.264-.157.393-.229.057-.036.121-.064.179-.1,2.471-1.407,4.278-1.093,5.357-.579a4.464,4.464,0,0,1,1.807,1.528l-1.214.757a3.179,3.179,0,0,0-1.257-1.021,4.332,4.332,0,0,0-3.978.557c-.057.036-.121.071-.186.107-.121.071-.236.136-.35.2a7.328,7.328,0,0,1-4.835.979.211.211,0,0,1-.071-.014c-.629-.079-1.021.264-1.778.979a11.437,11.437,0,0,1-1.536,1.271,2.151,2.151,0,0,0-1.086,2.007v-.007Z" transform="translate(13500.465 2536.161)" fill="#ed8851"/>
        <path id="Path_5882" data-name="Path 5882" d="M405.516,350.791c-.136-.214-.286-.429-.443-.65-1.129-1.629-2.528-3.657-2.436-8.357.157-7.5-.6-9.214-.629-9.278a.055.055,0,0,1,.007.021l1.257-.679c.1.179.957,2.007.793,9.971-.086,4.243,1.121,5.978,2.186,7.514.164.236.314.457.464.686Z" transform="translate(13397.927 2390.344)"/>
      </g>
    </g>
  </g>
</svg>
