<svg xmlns="http://www.w3.org/2000/svg" width="68" height="68" viewBox="0 0 68 68">
  <g id="oncology_icon" transform="translate(-2350 729)">
    <rect id="Rectangle_3014" data-name="Rectangle 3014" width="68" height="68" rx="3" transform="translate(2350 -729)" fill="#eceef3" opacity="0"/>
    <g id="Group_12208" data-name="Group 12208" transform="translate(1165.999 -2228.238)">
      <g id="Group_11330" data-name="Group 11330" transform="translate(-12235.266 -1067.695)">
        <path id="Path_5874" data-name="Path 5874" d="M194.327,22.635c2.526-7.125,2.2-10.452,1.655-13.25h0A13.762,13.762,0,0,0,192.6,2.7a8.908,8.908,0,0,0-6.592-2.722H185.1A8.908,8.908,0,0,0,178.512,2.7a13.785,13.785,0,0,0-3.379,6.679c-.547,2.8-.869,6.135,1.657,13.25h0a41.722,41.722,0,0,0,1.722,3.974.892.892,0,0,0,.8.514.847.847,0,0,0,.4-.1.96.96,0,0,0,.4-1.26,39.693,39.693,0,0,1-1.644-3.777c-2.362-6.657-2.075-9.69-1.58-12.226h0a13.073,13.073,0,0,1,1.182-3.333c.006.284.022.552.044.8.383,4.172,1.66,7.711,4.554,12.624.164.276.338.565.522.86h0a.872.872,0,0,0,1.23.259.964.964,0,0,0,.271-1.282c-.177-.284-.343-.56-.5-.824-2.772-4.7-3.941-7.9-4.3-11.816h0a17.179,17.179,0,0,1,.094-3.19,7.216,7.216,0,0,1,5.117-2h.908a7.216,7.216,0,0,1,5.117,2,17.263,17.263,0,0,1,.091,3.191c-.358,3.908-1.524,7.111-4.3,11.814-.541.92-1.226,1.991-2.08,3.25l-4.7,6.546C174.167,36.6,167.1,45.079,167.029,45.165a.972.972,0,0,0-.158.964l5.035,13.25h0a.9.9,0,0,0,.74.586.843.843,0,0,0,.092,0,.885.885,0,0,0,.748-.421c.069-.11,6.973-11.076,12.848-21.321l4.718-8.547a61.149,61.149,0,0,0,3.277-7.043Zm-9.538,14.651c-4.568,7.963-9.767,16.374-11.857,19.731l-4.2-11.047c1.52-1.836,7.588-9.2,12.815-16.162l.011-.015,4.726-6.572c.891-1.316,1.6-2.421,2.159-3.375,2.9-4.91,4.171-8.448,4.554-12.624.023-.25.038-.519.044-.8h0a13.075,13.075,0,0,1,1.182,3.333c.5,2.536.782,5.569-1.581,12.225h0a59.171,59.171,0,0,1-3.149,6.782Z" transform="translate(13267.459 2570.957)"/>
        <path id="Path_5875" data-name="Path 5875" d="M377,306.3c-.056-.061-5.548-6.129-11.572-13.718a.952.952,0,0,0-1.491,1.185c5.13,6.458,9.88,11.831,11.254,13.369l-4.461,11.221c-1.894-2.868-6.217-9.492-10.747-16.992h0a.952.952,0,1,0-1.631.984c6.052,10.024,11.746,18.494,11.8,18.578h0a.952.952,0,0,0,.789.42q.05,0,.1,0a.954.954,0,0,0,.783-.6l5.35-13.45h0a.951.951,0,0,0-.176-1Z" transform="translate(13095.021 2309.59)"/>
        <path id="Path_5876" data-name="Path 5876" d="M312.521,49.147a.952.952,0,0,0-.46-1.269,10.589,10.589,0,0,0-4.431-1,10.735,10.735,0,0,0-4.636,1.109.95.95,0,0,0,.42,1.8.934.934,0,0,0,.41-.1,8.6,8.6,0,0,1,7.428-.082.949.949,0,0,0,1.269-.461Z" transform="translate(13145.638 2529.162)" fill="#ec8046"/>
      </g>
    </g>
  </g>
</svg>
