<svg xmlns="http://www.w3.org/2000/svg" width="68" height="68" viewBox="0 0 68 68">
  <g id="ophthalmology" transform="translate(-2332 625)">
    <rect id="Rectangle_3021" data-name="Rectangle 3021" width="68" height="68" rx="3" transform="translate(2332 -625)" fill="#eceef3" opacity="0"/>
    <g id="Group_12219" data-name="Group 12219" transform="translate(1148.003 -2460.999)">
      <g id="Group_11338" data-name="Group 11338" transform="translate(-12249.414 -623)">
        <path id="Path_5909" data-name="Path 5909" d="M280.223,235.815a5.04,5.04,0,1,1-5.039-4.983,5.04,5.04,0,0,1,5.039,4.983" transform="translate(13189.259 2257.349)" fill="#ed803a"/>
        <path id="Path_5910" data-name="Path 5910" d="M113.618,50.24a1.681,1.681,0,0,0-1.421-.746,1.607,1.607,0,0,0-1.665,1.548v.691a22.043,22.043,0,0,1-4.417,1.207,2.277,2.277,0,0,1-1.321-.94.582.582,0,0,1,.045-.516c.122-.022.244-.033.377-.044,1.3-.121,2.919-.658,3.53-1.811a2.416,2.416,0,0,0-.189-2.437.565.565,0,0,0-.755-.209.551.551,0,0,0-.211.746,1.349,1.349,0,0,1,.166,1.383,3.2,3.2,0,0,1-2.276,1.186,2.532,2.532,0,0,0-.322-2.864.564.564,0,0,0-.788.022.549.549,0,0,0,.022.779c.011.011.688.714-.255,2.261a6.722,6.722,0,0,0-4.062,2.59,21.869,21.869,0,0,1-5.361-1.306v-.735A1.608,1.608,0,0,0,93.05,49.5a1.679,1.679,0,0,0-1.454.8,21.867,21.867,0,0,1-6.082-5.2,3.509,3.509,0,0,0,1.332-1.976,2.052,2.052,0,0,0,.045-.252c.4.285.71.582.732.735l-.011.055a2.143,2.143,0,0,0,1.743,2.711.847.847,0,0,1,.588.406,1.154,1.154,0,0,1-.022.834.552.552,0,0,0,.3.714.486.486,0,0,0,.211.044.554.554,0,0,0,.511-.34,2.223,2.223,0,0,0-.011-1.734,1.962,1.962,0,0,0-1.3-.988c-1.088-.307-1.032-.79-.943-1.525l.011-.066c.067-.527-.278-1.065-1.043-1.646a7.446,7.446,0,0,0-.91-.582,5.392,5.392,0,0,0-1.01-1.8,11.223,11.223,0,0,1-.888-1.24A5.5,5.5,0,0,0,87.9,35.819a15.291,15.291,0,0,0,23.953,7.727c-.233-.285-.455-.571-.677-.867A14.171,14.171,0,0,1,88.711,34.5a5.013,5.013,0,0,1,.81-1.065,2.914,2.914,0,0,0,.855,2.25c.455.351.366.681.344.735l.011-.011,1.021.439a1.711,1.711,0,0,0-.677-2.02,2.079,2.079,0,0,1-.422-1.515,3.4,3.4,0,0,1,1.776,1.822.562.562,0,0,0,.71.329.548.548,0,0,0,.333-.7,4.207,4.207,0,0,0-3.208-2.656,1.99,1.99,0,0,0-1.776.834c-.033-.417-.055-.845-.055-1.273,0-.351.011-.7.045-1.054.489-.033.965-.022,1.421-.011,1.343.033,2.73.066,3.341-1.2a.546.546,0,0,0-.255-.735.558.558,0,0,0-.744.252c-.288.593-.988.6-2.309.571-.422-.011-.855-.022-1.31,0a13.925,13.925,0,0,1,5.038-8.663,14.134,14.134,0,0,1,6.261-2.894c.111.274.178.461.2.494a.554.554,0,0,0,.511.329.533.533,0,0,0,.222-.044.55.55,0,0,0,.288-.724c-.033-.066-.067-.154-.1-.23a14.063,14.063,0,0,1,1.532-.077c.366,0,.722.011,1.077.044a1.2,1.2,0,0,1,.444.4,1.165,1.165,0,0,1,.133.779.546.546,0,0,0,.4.67.649.649,0,0,0,.144.022.555.555,0,0,0,.533-.406,2.181,2.181,0,0,0-.067-1.24,14.206,14.206,0,0,1,8.769,5.51,6.672,6.672,0,0,0-3.441.384.55.55,0,0,0-.322.714.56.56,0,0,0,.722.318,5.327,5.327,0,0,1,3.941-.033c.2.351.389.714.555,1.087a3,3,0,0,1-1.077-.022.555.555,0,0,0-.677.384.548.548,0,0,0,.389.67,3.719,3.719,0,0,0,.877.088,4.786,4.786,0,0,0,.91-.088,13.859,13.859,0,0,1,.722,3.029c.344.461.677.933.988,1.4.045.055.1.11.144.165a.524.524,0,0,0,.078.077,14.769,14.769,0,0,0-.878-5.019,5.439,5.439,0,0,0,1.366-.864c.089,0,.178.011.266.011a4.017,4.017,0,0,0,1.743-.318,1.718,1.718,0,0,0,.489-.34c.278.263.288.637.055,1.219a.842.842,0,0,0-.078.329.547.547,0,0,0,.555.549.557.557,0,0,0,.544-.439.085.085,0,0,1,.022-.044,2.875,2.875,0,0,0,.222-1.24A4.628,4.628,0,0,1,123.8,26.62a21.488,21.488,0,0,1,.6,5.027,21.068,21.068,0,0,1-.189,2.8,3.727,3.727,0,0,0-1.088-.077,2.525,2.525,0,0,0-1.1-2.525c-.666-.329-.71-.472-.633-.856a1.3,1.3,0,0,0-.189-1.054,2.274,2.274,0,0,0-1.376-.79.552.552,0,0,0-.633.45.539.539,0,0,0,.455.625,1.224,1.224,0,0,1,.644.318.207.207,0,0,1,.022.209,1.755,1.755,0,0,0,1.21,2.074c.5.252.533,1.109.489,1.668a4.257,4.257,0,0,1-.522.011,3.7,3.7,0,0,1-1.765-.648,10.288,10.288,0,0,1,1.1,1.657,4.32,4.32,0,0,0,.566.088,5.979,5.979,0,0,0,1.176-.055h.056a3.694,3.694,0,0,1,1.432,0,22.107,22.107,0,0,1-.777,2.974c.555.648,1.11,1.3,1.643,1.965A23.571,23.571,0,0,0,119.6,14.844a24.328,24.328,0,0,0-5.683-4.182V4.494h-3.33V9.236A24.5,24.5,0,0,0,94.77,9.181V4.495H91.44v6.113a23.959,23.959,0,0,0-5.827,4.248,23.516,23.516,0,0,0-.055,33.607,23.941,23.941,0,0,0,5.827,4.248v5.784h3.33V54.137a24.5,24.5,0,0,0,15.817-.055v4.412h3.33v-5.85a23.642,23.642,0,0,0,4.018-2.678c-.577-.483-1.143-.977-1.676-1.493a22.851,22.851,0,0,1-2.586,1.767Zm2.875-24.63c-.022-.044-.033-.088-.055-.132.067.022.133.033.211.055A1.065,1.065,0,0,1,116.493,25.61Zm6.749-.768c-.444-.242-.921-.45-1.41-.67-.155-.066-.322-.143-.477-.209a2.967,2.967,0,0,1,1.243-.8c.244.549.455,1.109.644,1.679Zm-3.319-5.576c-.133-.384-.166-.56-.055-.714a21.815,21.815,0,0,1,2.276,3.611,3.748,3.748,0,0,0-1.787,1.306,6.147,6.147,0,0,1-1.432-1.032,3.509,3.509,0,0,1-.377-.428c.544-.406,1.809-1.514,1.376-2.744Zm-18.78-8.934a.462.462,0,0,0,.178-.209c.411-.022.81-.033,1.221-.033a21.885,21.885,0,0,1,7.981,1.493v.362a1.608,1.608,0,0,0,1.665,1.548,1.734,1.734,0,0,0,1.243-.516,21.853,21.853,0,0,1,5.716,4.72,1.659,1.659,0,0,0-.288,1.932c.155.45-.477,1.1-.943,1.46a7.645,7.645,0,0,1-.844-3.2.555.555,0,0,0-1.11,0,8.115,8.115,0,0,0,2.164,5.323,7.756,7.756,0,0,0,1.709,1.24.084.084,0,0,1-.045.022,3.735,3.735,0,0,1-1.7.186h-.011a5.482,5.482,0,0,1-1.909-.439c-.166-.088-.355-.176-.544-.263a15.267,15.267,0,0,0-11.71-7.3,3.639,3.639,0,0,0-.666-.219,3.532,3.532,0,0,1-.533-.154c.211.011.444.022.666.055a1.212,1.212,0,0,0,1.41-.714c.111-.2.166-.307.377-.384.344-.121.844.23,1.321.582a5.943,5.943,0,0,0,.855.549,1.564,1.564,0,0,0,.666.165,1.687,1.687,0,0,0,1.4-.889.543.543,0,0,0-.222-.746.559.559,0,0,0-.755.219c-.078.132-.288.428-.6.274a4.872,4.872,0,0,1-.688-.45,2.559,2.559,0,0,0-2.353-.724,1.721,1.721,0,0,0-.977.878c-.033.055-.078.132-.1.165a.548.548,0,0,1-.178-.011A8.078,8.078,0,0,0,101.8,15.2c-.011-.044-.011-.077-.022-.121a3.044,3.044,0,0,0-.133-.527c-.222-.56-1.266-2.535-1.454-2.887a2.5,2.5,0,0,1,.955-1.328Zm-.522,4.632c.022.066.045.186.078.318a2.479,2.479,0,0,0,.6,1.372l-.644.066a13.5,13.5,0,0,1-.611-2.963c.256.516.489,1,.577,1.207ZM87.457,34.457c-.755,1.251-1.621,2.667-3.019,2.963a.3.3,0,0,0-.078.022,4.612,4.612,0,0,1,.022-2.711c.033-.153.067-.318.1-.483a.569.569,0,0,0,.089-.242,3.866,3.866,0,0,1,2.442-3.15,3.109,3.109,0,0,1,.344-.088c-.022.3-.022.593-.022.889a14.733,14.733,0,0,0,.233,2.634,1.284,1.284,0,0,1-.111.165Zm-2.62,9.769a21.3,21.3,0,0,1-4.1-12.567A21.535,21.535,0,0,1,91.763,12.923a1.7,1.7,0,0,0,1.288.571,1.607,1.607,0,0,0,1.665-1.548V11.54a22.4,22.4,0,0,1,4.928-1.251c-1.266,1.822-.655,4.807-.1,6.618A15.163,15.163,0,0,0,87.468,29.628a7.525,7.525,0,0,0-.788.186,4.351,4.351,0,0,0-2.08,1.417,2.512,2.512,0,0,0-2.042-2.009.559.559,0,0,0-.622.483.545.545,0,0,0,.489.6c.144.022,1.432.274,1.166,2.568-.078.625-.189,1.163-.278,1.635l-.1.494a.92.92,0,0,1-.722-.494.731.731,0,0,1,.045-.6,2,2,0,0,0,.611-1.581.547.547,0,0,0-.555-.549.554.554,0,0,0-.555.549,1.485,1.485,0,0,1-.144.681,1.65,1.65,0,0,0-.511,1.646,2.009,2.009,0,0,0,1.687,1.438c-.055,1.153.3,2.371,1.82,4.269a3.078,3.078,0,0,1,.877,2.5,2.4,2.4,0,0,1-.932,1.361Zm17.715,9c-.389,0-.766-.011-1.143-.033a5.727,5.727,0,0,1,2.242-1.427,1.752,1.752,0,0,0,.111.625,2.237,2.237,0,0,0,.555.768q-.883.065-1.765.066Z" transform="translate(13361.891 2461.505)"/>
        <path id="Path_5911" data-name="Path 5911" d="M403.257,271.562a.988.988,0,0,1,.655-.242,1.028,1.028,0,0,1,.777.351l6.471,7.518V275.8l-4.784-5.543a3.228,3.228,0,0,0-2.065-1.1l-13.886-16.145-2.142,1.8c-.732.615-.633,1.591.455,4.544.622,1.69,1.421,3.578,1.843,4.555a6.28,6.28,0,0,0,1.01,1.614l5.439,6.311.666-.165a5.007,5.007,0,0,1,2.986.637,3.175,3.175,0,0,0,.766,2.085l6.9,8.012h2.8v-.538l-.211.176-7.814-9.077a1,1,0,0,1,.133-1.4Zm-1.843-1.339a7.808,7.808,0,0,0-3.2-.8c-.122,0-.233,0-.355.011l-4.584-5.324a4.3,4.3,0,0,1-.655-1.054,46.677,46.677,0,0,1-2.553-6.86l.1-.088,11.766,13.676Z" transform="translate(13083.252 2237.341)" fill="#ed803a"/>
      </g>
    </g>
  </g>
</svg>
