<svg xmlns="http://www.w3.org/2000/svg" width="68" height="68" viewBox="0 0 68 68">
  <g id="orthopaedic" transform="translate(-2800 729)">
    <rect id="Rectangle_3018" data-name="Rectangle 3018" width="68" height="68" rx="3" transform="translate(2800 -729)" fill="#eceef3" opacity="0"/>
    <g id="Group_12215" data-name="Group 12215" transform="translate(1616.01 -2398)">
      <g id="Group_11334" data-name="Group 11334" transform="translate(-12228.344 -786.441)">
        <path id="Path_5899" data-name="Path 5899" d="M73.722,14.424h.171c7.016.6,12.407,1.123,18.139,2.074l.428.086c2.738.432,5.476.864,7.444,2.678a12.935,12.935,0,0,1,1.711,1.987c1.369,1.642,2.824,3.542,5.3,4.147a6.544,6.544,0,0,0,1.283.173,5.742,5.742,0,0,0,3.166-1.037,6.76,6.76,0,0,0,3.08-4.579,9.067,9.067,0,0,0-5.9-9.935,24.194,24.194,0,0,0-4.364-1.037c-7.1-.781-14.715-1.641-23.357-2.5L76.2,6.216c-.684,0-1.369-.086-2.053-.086a1.081,1.081,0,1,0-.086,2.16c.684,0,1.369.086,2.053.086,1.54.086,3.08.173,4.62.346,8.556.864,16.257,1.728,23.272,2.506a18.492,18.492,0,0,1,3.936.95,6.994,6.994,0,0,1,4.449,7.6,5.061,5.061,0,0,1-2.139,3.11,3.025,3.025,0,0,1-2.652.518c-1.8-.518-3-1.9-4.192-3.456a15.443,15.443,0,0,0-1.968-2.16c-2.4-2.246-5.647-2.765-8.556-3.283l-.428-.086c-5.9-1.037-11.55-1.555-18.4-2.16-.257,0-.513,0-.6.086a1.073,1.073,0,0,0-.941,1.21,1.048,1.048,0,0,0,1.2.864Z" transform="translate(13346.829 2456.312)"/>
        <path id="Path_5900" data-name="Path 5900" d="M517.411,25.5h.513A3.136,3.136,0,0,0,521.09,23a15.171,15.171,0,0,0,.513-3.888,12.617,12.617,0,0,0-1.711-6.48,4.124,4.124,0,0,0-4.364-1.987,3.018,3.018,0,0,0-2.4,1.469,2.964,2.964,0,0,0,.257,2.765,12.715,12.715,0,0,1,1.626,7C514.844,23.859,515.7,25.242,517.411,25.5Zm-2.4-12.355a1.445,1.445,0,0,1,.77-.259h.428a2.007,2.007,0,0,1,1.8,1.037,9.935,9.935,0,0,1,1.454,5.27,15.15,15.15,0,0,1-.428,3.37,1.178,1.178,0,0,1-1.369.864c-.257,0-.685-.086-.6-1.123a14.214,14.214,0,0,0-1.882-8.294,3.691,3.691,0,0,1-.171-.864Z" transform="translate(12949.514 2452.32)" fill="#ed8851"/>
        <path id="Path_5901" data-name="Path 5901" d="M445.985,198.859a8.062,8.062,0,0,0-6.075-1.642,14.876,14.876,0,0,0-5.989,2.419,6.038,6.038,0,0,0-1.882,1.728,4.167,4.167,0,0,0-.685,3.283,4.556,4.556,0,0,0,2.4,2.678,15.49,15.49,0,0,1,4.192,2.506,14.3,14.3,0,0,1,1.112,1.21,3.86,3.86,0,0,1,.77,1.987v.086a20.061,20.061,0,0,1,.513,2.419,42.281,42.281,0,0,1,.6,5.011c.086.778.171,8.035.171,10.714a1.045,1.045,0,0,0,1.027,1.037,1.067,1.067,0,0,0,1.027-1.123c0-.432-.086-9.85-.171-10.886a43.9,43.9,0,0,0-.684-5.27,21.425,21.425,0,0,0-.6-2.506v-.086a6.816,6.816,0,0,0-1.2-2.678,10.5,10.5,0,0,0-1.369-1.555,18.553,18.553,0,0,0-4.706-2.851,2.351,2.351,0,0,1-1.283-1.3,1.97,1.97,0,0,1,.342-1.469,4.9,4.9,0,0,1,1.2-1.123,13.964,13.964,0,0,1,5.219-2.16,5.362,5.362,0,0,1,4.364,1.123c1.711,1.469,2.053,4.147,2.225,6.739l1.54,24.1a1.045,1.045,0,0,0,1.027,1.037h.086a1.067,1.067,0,0,0,1.027-1.123l-1.54-24.1C448.723,204.043,448.3,200.932,445.985,198.859Z" transform="translate(13023.165 2284.146)"/>
        <path id="Path_5902" data-name="Path 5902" d="M374.9,320.055a3.717,3.717,0,0,0-2.995.518,3.772,3.772,0,0,0-1.711,2.419l-.342,1.642a4.417,4.417,0,0,0-.171,1.123l-.171,1.382a4.61,4.61,0,0,0-.086,1.123l-.086.864c0,.432-.086.778-.086,1.21v1.987a7.5,7.5,0,0,0,.086,1.382,7.683,7.683,0,0,0,.171,1.469v.346c.086.432.086.864.171,1.3s.171.95.257,1.3l.6,2.592a2.29,2.29,0,0,0,2.225,1.728h.086a2.073,2.073,0,0,0,1.54-.778,2.294,2.294,0,0,0,.6-1.642l-.086-1.9v-1.642a4.246,4.246,0,0,1,.086-1.037v-.346a5.887,5.887,0,0,1,.171-1.21,4.374,4.374,0,0,1,.171-1.037l.086-.346.257-1.3c.086-.259.171-.6.257-.864l.856-2.592a3.084,3.084,0,0,1,.342-.778l.513-1.469.257-.778a3.934,3.934,0,0,0-3-4.666Zm.856,4.234a.657.657,0,0,1-.171.346l-.513,1.382a9.024,9.024,0,0,0-.342.864L374.3,328c-.086.259-.171.6-.257.864l-.257.778c-.086.346-.171.691-.257.95-.086.432-.171.864-.257,1.382l-.086.432a6,6,0,0,0-.171,1.123c-.086.432-.086.864-.171,1.3v.346c0,.432-.086.778-.086,1.123v1.728l.086,1.987a.3.3,0,0,1-.086.173c-.086,0-.086-.086-.171-.086l-.6-2.506c-.086-.346-.171-.778-.257-1.21-.086-.346-.086-.778-.171-1.21v-.259a7.5,7.5,0,0,1-.086-1.382c0-.432-.086-.864-.086-1.3v-1.814a4.976,4.976,0,0,1,.086-1.123l.086-.778c0-.346.086-.691.086-1.037l.171-1.3c.086-.346.086-.691.171-1.037l.342-1.555a2.056,2.056,0,0,1,.77-1.123,1.712,1.712,0,0,1,.941-.259.765.765,0,0,1,.428.086,1.541,1.541,0,0,1,1.285,2Z" transform="translate(13079.108 2173.49)" fill="#ed8851"/>
      </g>
    </g>
  </g>
</svg>
