<svg xmlns="http://www.w3.org/2000/svg" width="68" height="68" viewBox="0 0 68 68">
  <g id="paediatricurology" transform="translate(-2596 625)">
    <rect id="Rectangle_3023" data-name="Rectangle 3023" width="68" height="68" rx="3" transform="translate(2596 -625)" fill="#eceef3" opacity="0"/>
    <g id="Group_12225" data-name="Group 12225" transform="translate(1645.002 -2628)">
      <g id="Group_11342" data-name="Group 11342" transform="translate(960.999 2010)">
        <path id="Path_5927" data-name="Path 5927" d="M143.031,48.351a9.239,9.239,0,0,0-1.444-3.55,3.645,3.645,0,0,0-2.549-1.522,6.167,6.167,0,0,0-4.588-4.9V31.7a3.156,3.156,0,0,0-6.287,0v6.678a6.288,6.288,0,0,0-4.673,4.9,3.575,3.575,0,0,0-2.634,1.69,10.469,10.469,0,0,0-1.359,3.381,3.185,3.185,0,0,0-2.549,3.127V76.244a3.128,3.128,0,0,0,3.143,3.127h22.26a3.128,3.128,0,0,0,3.143-3.127V51.394a2.809,2.809,0,0,0-2.464-3.043Zm.935,22.992H118.733V60.27c.764-.845,4.333-4.564,10.79-2.367a31.2,31.2,0,0,0,14.443,1.268ZM129.183,39.9a.824.824,0,0,0,.68-.845V31.7a1.473,1.473,0,0,1,2.889,0v7.354a.911.911,0,0,0,.68.845,4.773,4.773,0,0,1,3.908,3.381H125.275a4.526,4.526,0,0,1,3.908-3.381ZM122.3,45.815a1.98,1.98,0,0,1,1.7-.845h14.613a1.869,1.869,0,0,1,1.614.761,7.854,7.854,0,0,1,1.1,2.621H121.282a11.315,11.315,0,0,1,1.02-2.536Zm-2.379,4.142c.255.085,22.513.085,22.769,0a1.533,1.533,0,0,1,1.274,1.437V57.48a29.67,29.67,0,0,1-13.846-1.18c-5.607-1.86-9.43.085-11.384,1.606v-6.6a1.513,1.513,0,0,1,1.189-1.352ZM142.436,77.6h-22.26a1.428,1.428,0,0,1-1.444-1.437V73.117h25.233V76.16a1.45,1.45,0,0,1-1.529,1.437Z" transform="translate(-116.949 -27.57)"/>
        <path id="Path_5928" data-name="Path 5928" d="M375.17,57.749a2.282,2.282,0,0,0,2.719,1.437,2.319,2.319,0,0,0,1.614-3.212l-1.529-3.635a2.416,2.416,0,0,1,.17-2.029l.085-.085a.921.921,0,0,0,0-.676L372.536,34.5l1.275-.5a2.922,2.922,0,1,0-2.209-5.41l-3.483-8.875a5.061,5.061,0,1,0-9.345,3.888l3.568,8.96a2.922,2.922,0,1,0,2.209,5.41l1.274-.507,5.692,14.962a.728.728,0,0,0,.6.507,2.422,2.422,0,0,1,1.614,1.268ZM360.3,22.923a3.383,3.383,0,0,1,1.869-4.4,3.447,3.447,0,0,1,4.418,1.775l3.483,8.96-6.2,2.536Zm3.483,13.356A1.233,1.233,0,1,1,362.851,34c.085,0,10.025-4.142,9.43-3.888a1.233,1.233,0,0,1,.934,2.283Zm9.09,15.046-5.6-14.625,3.738-1.522L376.614,49.8a3.87,3.87,0,0,0-.17,3.212l1.529,3.635a.752.752,0,0,1-.425.93.684.684,0,0,1-.764-.423l-1.529-3.635a4.031,4.031,0,0,0-2.379-2.2Z" transform="translate(-333.456 -16.597)"/>
        <path id="Path_5929" data-name="Path 5929" d="M506.657,446.6c-.6.592-3.483,3.55-3.483,5.579a4.078,4.078,0,0,0,8.156,0c0-2.029-2.889-5.071-3.483-5.579a.825.825,0,0,0-1.19,0Zm.6,8.03a2.369,2.369,0,0,1-2.379-2.367c0-.845,1.274-2.536,2.379-3.8,1.1,1.268,2.379,2.958,2.379,3.8a2.369,2.369,0,0,1-2.379,2.371Z" transform="translate(-463.33 -402.24)" fill="#ed803a"/>
      </g>
    </g>
  </g>
</svg>
