<svg xmlns="http://www.w3.org/2000/svg" xmlns:xlink="http://www.w3.org/1999/xlink" width="68" height="68" viewBox="0 0 68 68">
  <defs>
    <clipPath id="clip-path">
      <rect id="Rectangle_70" data-name="Rectangle 70" width="49" height="59" transform="translate(0.1 -0.258)" fill="none"/>
    </clipPath>
  </defs>
  <g id="rheumatology" transform="translate(-1281 -362)">
    <rect id="Rectangle_69" data-name="Rectangle 69" width="68" height="68" rx="3" transform="translate(1281 362)" fill="#fff" opacity="0.31"/>
    <g id="Group_59" data-name="Group 59" transform="translate(1291.167 367.849)">
      <g id="Group_58" data-name="Group 58" transform="translate(-0.267 -0.591)" clip-path="url(#clip-path)">
        <path id="Path_159" data-name="Path 159" d="M51.717,281.386l4.06.871-1,2.648,4.494.81" transform="translate(-48.359 -262.476)" fill="none" stroke="#ed8851" stroke-linecap="round" stroke-linejoin="round" stroke-width="1.6"/>
        <path id="Path_160" data-name="Path 160" d="M15.625,413.591l4.118-.553-.025,2.825,4.505-.758" transform="translate(-14.655 -385.415)" fill="none" stroke="#ed8851" stroke-linecap="round" stroke-linejoin="round" stroke-width="1.6"/>
        <path id="Path_161" data-name="Path 161" d="M51.858,534.962l2.857-3,1.729,2.25,3.032-3.4" transform="translate(-48.49 -495.389)" fill="none" stroke="#ed8851" stroke-linecap="round" stroke-linejoin="round" stroke-width="1.6"/>
        <path id="Path_162" data-name="Path 162" d="M591.619,281.386l-4.06.871,1,2.648-4.495.81" transform="translate(-545.472 -262.476)" fill="none" stroke="#ed8851" stroke-linecap="round" stroke-linejoin="round" stroke-width="1.6"/>
        <path id="Path_163" data-name="Path 163" d="M613.048,413.591l-4.118-.553.025,2.825-4.505-.758" transform="translate(-564.513 -385.415)" fill="none" stroke="#ed8851" stroke-linecap="round" stroke-linejoin="round" stroke-width="1.6"/>
        <path id="Path_164" data-name="Path 164" d="M590.642,534.962l-2.857-3-1.729,2.25-3.032-3.4" transform="translate(-544.504 -495.389)" fill="none" stroke="#ed8851" stroke-linecap="round" stroke-linejoin="round" stroke-width="1.6"/>
        <path id="Path_165" data-name="Path 165" d="M261.1,491.1V476.7a2.576,2.576,0,0,1,1.581-2.273,4.891,4.891,0,0,0,2.833-5.342,5.175,5.175,0,0,0-4.258-4,5.76,5.76,0,0,0-3.165.323,2.207,2.207,0,0,1-1.668,0,5.76,5.76,0,0,0-3.165-.323,5.175,5.175,0,0,0-4.258,4,4.891,4.891,0,0,0,2.833,5.343,2.577,2.577,0,0,1,1.581,2.273v14.4" transform="translate(-232.503 -433.937)" fill="none" stroke="#000" stroke-linecap="round" stroke-linejoin="round" stroke-width="1.6"/>
        <path id="Path_166" data-name="Path 166" d="M261.1,15.625v14.4a2.576,2.576,0,0,0,1.581,2.273,4.891,4.891,0,0,1,2.833,5.343,5.175,5.175,0,0,1-4.258,4,5.759,5.759,0,0,1-3.165-.323,2.207,2.207,0,0,0-1.668,0,5.76,5.76,0,0,1-3.165.323,5.176,5.176,0,0,1-4.258-4,4.891,4.891,0,0,1,2.833-5.343,2.577,2.577,0,0,0,1.581-2.273v-14.4" transform="translate(-232.503 -14.302)" fill="none" stroke="#000" stroke-linecap="round" stroke-linejoin="round" stroke-width="1.6"/>
      </g>
    </g>
  </g>
</svg>
